<svg width="216" height="36" viewBox="0 0 216 36" fill="none" xmlns="http://www.w3.org/2000/svg">
<path d="M214.906 6.71901L215.038 6.7041V11.6638L214.914 11.6551C214.909 10.0101 214.906 8.36479 214.906 6.71901Z" fill="#656267"/>
<path d="M170.318 9.25596C170.318 8.85342 170.273 8.44467 170.328 8.04958C170.41 7.33108 170.583 6.62595 170.844 5.95116C171.171 5.11384 171.617 4.32771 172.167 3.61668C172.619 3.05551 173.13 2.54519 173.692 2.09473C174.19 1.70394 174.725 1.3639 175.29 1.07968C175.745 0.85368 176.215 0.658998 176.697 0.496991C177.488 0.219934 178.312 0.144147 179.135 0.0348152C179.701 -0.0397292 180.277 0.0534513 180.85 0.0969355C182.548 0.221176 184.063 0.822501 185.458 1.75803C186.853 2.69357 187.852 3.99437 188.547 5.50265C188.802 6.0683 188.987 6.66278 189.1 7.27308C189.254 8.08313 189.373 8.88821 189.297 9.70695C189.225 10.476 189.126 11.2426 188.862 11.988C188.599 12.7335 188.312 13.4242 187.868 14.0616C187.781 14.1858 187.806 14.3101 187.95 14.4343C188.447 14.8306 188.922 15.2468 189.41 15.6494C189.439 15.6649 189.463 15.6873 189.481 15.7147C189.499 15.742 189.51 15.7734 189.513 15.806C189.516 15.8386 189.51 15.8713 189.497 15.9012C189.484 15.9312 189.463 15.9573 189.437 15.9774C188.709 16.775 187.976 17.5702 187.253 18.3727C187.129 18.497 187.068 18.5305 186.909 18.4175C186.559 18.169 186.288 17.8422 185.957 17.5714C185.709 17.3689 185.461 17.1689 185.239 16.9502C185.224 16.931 185.205 16.9151 185.183 16.9036C185.161 16.8922 185.138 16.8854 185.113 16.8836C185.088 16.8818 185.064 16.8852 185.041 16.8935C185.018 16.9017 184.996 16.9147 184.978 16.9316C184.267 17.3709 183.502 17.7186 182.704 17.9665C182.236 18.1009 181.761 18.2042 181.28 18.2758C180.508 18.4001 179.743 18.3765 178.974 18.3616C178.323 18.3491 177.693 18.1876 177.059 18.0336C176.126 17.7926 175.238 17.4025 174.429 16.8781C173.662 16.4058 172.977 15.8111 172.402 15.1176C171.965 14.5915 171.585 14.021 171.267 13.4155C170.953 12.7978 170.708 12.1469 170.538 11.4749C170.356 10.7501 170.282 10.0024 170.318 9.25596ZM181.517 13.715C181.21 13.4242 180.921 13.1497 180.608 12.895C180.149 12.5223 179.703 12.1309 179.262 11.7358C179.237 11.7147 179.071 11.6787 179.219 11.5171C179.975 10.6984 180.686 9.83865 181.455 9.03233C181.619 8.86088 181.717 8.90809 181.855 9.03233C182.471 9.59058 183.089 10.1476 183.709 10.7034C183.798 10.7829 183.833 10.9643 184.006 10.8972C184.152 10.8388 184.075 10.6798 184.105 10.5679C184.121 10.5083 184.165 10.4536 184.176 10.4052C184.27 10.0087 184.306 9.60072 184.284 9.19384C184.27 8.80105 184.217 8.41064 184.125 8.02846C183.944 7.3192 183.612 6.65729 183.152 6.08782C182.504 5.29675 181.599 4.7592 180.594 4.5696C179.617 4.35521 178.596 4.4971 177.714 4.96966C176.293 5.7238 175.563 6.96745 175.317 8.50182C175.237 9.05133 175.254 9.61071 175.368 10.1542C175.506 10.8959 175.806 11.598 176.247 12.2104C177.069 13.3609 178.2 13.9249 179.59 14.0206C180.247 14.0535 180.903 13.9494 181.517 13.715Z" fill="#1D5EA5"/>
<path d="M46.0296 9.50231C46.1178 9.39173 46.0806 9.26501 46.0806 9.14698C46.0806 6.33665 46.0806 3.52674 46.0806 0.717244C46.0806 0.460066 46.1203 0.370612 46.4061 0.373097C47.8348 0.390491 49.2636 0.384279 50.6911 0.373097C50.8825 0.373097 50.952 0.406642 50.952 0.621579C50.9462 6.33665 50.9462 12.0488 50.952 17.7581C50.952 17.9718 50.8812 18.0066 50.6887 18.0066C49.4363 17.9991 48.184 17.9805 46.9316 18.0153C46.549 18.0265 46.4036 17.773 46.2458 17.563C45.8296 17.0077 45.396 16.4672 44.9711 15.9193C44.3002 15.0497 43.6392 14.18 42.9621 13.3202C41.9943 12.0915 41.0053 10.8777 40.0474 9.64021C39.7629 9.26749 39.4772 8.90719 39.143 8.47484C39.1343 8.66244 39.1256 8.76929 39.1256 8.87738C39.1256 11.8107 39.1256 14.744 39.1318 17.6786C39.1318 17.9544 39.0622 18.0116 38.7951 18.0091C37.3874 17.9942 35.9798 17.9991 34.5709 18.0091C34.3634 18.0091 34.2715 17.9942 34.2715 17.7357C34.2814 12.0339 34.2814 6.3321 34.2715 0.630275C34.2715 0.432733 34.315 0.371855 34.52 0.374339C35.8966 0.384279 37.2731 0.389248 38.6497 0.374339C39.0535 0.374339 39.1392 0.712274 39.3157 0.922241C39.8959 1.61302 40.4264 2.34604 40.9805 3.05918C41.8079 4.12268 42.6329 5.18743 43.4653 6.24347C44.2816 7.27343 45.0581 8.33569 45.9116 9.33707C45.9601 9.38801 45.9389 9.47746 46.0296 9.50231Z" fill="#020203"/>
<path d="M138.746 9.19429C138.746 6.36409 138.746 3.53388 138.746 0.704921C138.746 0.448985 138.808 0.378168 139.069 0.379411C142.205 0.391835 145.341 0.363259 148.475 0.407986C149.617 0.424137 150.749 0.673861 151.738 1.2901C152.618 1.83924 153.267 2.59338 153.564 3.62458C153.778 4.37002 153.752 5.12665 153.64 5.86091C153.472 6.94553 152.835 7.7767 151.883 8.34573C151.712 8.44885 151.55 8.56563 151.386 8.67496C151.332 8.71099 151.212 8.67496 151.22 8.7669C151.229 8.80649 151.249 8.84277 151.278 8.87172C151.306 8.90067 151.342 8.92115 151.381 8.9309C151.845 9.09304 152.288 9.31037 152.7 9.57819C153.445 10.059 154.04 10.6641 154.315 11.5549C154.535 12.2472 154.608 12.9783 154.527 13.7005C154.345 15.2299 153.59 16.4015 152.199 17.1246C151.399 17.5315 150.535 17.7967 149.645 17.9085C149.065 17.9773 148.481 18.0071 147.898 17.998C144.959 18.0054 142.02 17.998 139.077 18.0067C138.828 18.0067 138.747 17.9471 138.747 17.6849C138.746 14.851 138.746 12.0208 138.746 9.19429ZM145.914 10.9237V10.9014C145.21 10.9014 144.507 10.9125 143.801 10.9014C143.537 10.9014 143.472 10.9858 143.477 11.2381C143.491 12.0742 143.492 12.9103 143.477 13.7452C143.477 14.0024 143.565 14.0571 143.798 14.0546C145.008 14.0471 146.218 14.0546 147.428 14.0546C147.906 14.0747 148.383 13.9828 148.82 13.7862C149.462 13.4731 149.791 12.5314 149.483 11.8903C149.185 11.2691 148.661 10.9846 148.021 10.9424C147.319 10.884 146.618 10.92 145.915 10.92L145.914 10.9237ZM145.541 4.35387C144.942 4.35387 144.342 4.35387 143.742 4.35387C143.541 4.35387 143.478 4.41599 143.481 4.6185C143.493 5.46417 143.493 6.31066 143.481 7.15799C143.481 7.39156 143.552 7.46362 143.782 7.45244C145.013 7.3928 146.25 7.55556 147.479 7.34186C147.788 7.29874 148.08 7.17821 148.33 6.9915C148.777 6.6399 148.97 6.19885 148.848 5.60373C148.776 5.25337 148.662 4.94526 148.375 4.76511C147.987 4.50124 147.531 4.35656 147.062 4.3489C146.929 4.35085 145.541 4.34881 145.541 4.35387Z" fill="#FFD133"/>
<path d="M84.4382 17.9494C84.314 18.0376 84.1786 18.0065 84.0493 18.0065C82.4454 18.0065 80.8402 17.9817 79.2375 18.0239C78.7977 18.0364 78.5952 17.8425 78.3989 17.5394C77.9305 16.8213 77.4696 16.0982 76.9925 15.3863C76.452 14.58 75.8892 13.7886 75.3774 12.9586C75.332 12.867 75.2607 12.7907 75.1724 12.7393C75.084 12.6878 74.9825 12.6634 74.8804 12.6692C74.4045 12.6915 73.9275 12.6915 73.4529 12.6692C73.2044 12.658 73.1373 12.7449 73.1385 12.9822C73.1472 14.5315 73.1385 16.0808 73.1497 17.6301C73.1497 17.9221 73.0876 18.0177 72.777 18.014C71.3391 17.9991 69.9008 17.9991 68.4621 18.014C68.2223 18.014 68.1788 17.9494 68.1788 17.7245C68.1863 13.5417 68.1863 9.35897 68.1788 5.1762C68.1788 3.65797 68.1788 2.13975 68.1788 0.621529C68.1788 0.477409 68.1664 0.373047 68.3776 0.373047C71.4712 0.382986 74.5661 0.36435 77.6597 0.404107C78.2659 0.411562 78.8797 0.559408 79.4835 0.717194C80.3636 0.946453 81.1878 1.35224 81.9062 1.90991C82.5386 2.39817 82.9945 3.04671 83.3511 3.77352C83.9437 4.98611 83.9487 6.27821 83.7996 7.54547C83.6257 9.01524 82.874 10.2179 81.6341 11.0901C81.269 11.3692 80.875 11.6083 80.4588 11.8032C80.2712 11.8827 80.347 12.0368 80.4141 12.1324C81.0875 13.1052 81.7807 14.0681 82.4516 15.0397C82.9647 15.7851 83.4617 16.5306 83.9674 17.276C84.1214 17.4959 84.2792 17.7195 84.4382 17.9494ZM75.2593 4.72148V4.71278C74.6282 4.71278 73.9983 4.71278 73.3671 4.71278C73.2007 4.71278 73.136 4.74632 73.1373 4.9302C73.1456 6.1577 73.1456 7.38561 73.1373 8.61394C73.1373 8.79657 73.1994 8.83012 73.3659 8.82888C74.5027 8.82142 75.6407 8.84006 76.7775 8.81397C77.2533 8.80249 77.7146 8.64745 78.1007 8.36919C78.7455 7.91322 79.0797 6.95284 78.8548 6.17634C78.7579 5.84213 78.6163 5.49177 78.3442 5.28429C77.9193 4.9625 77.4348 4.72148 76.872 4.72396C76.339 4.72148 75.801 4.72148 75.2593 4.72148Z" fill="#050506"/>
<path d="M133.228 7.70312C134.48 7.70312 135.732 7.70312 136.985 7.70312C137.208 7.70312 137.283 7.74536 137.282 7.98639C137.272 10.4662 137.272 12.9457 137.282 15.4247C137.282 15.6732 137.157 15.7775 136.979 15.9216C136.261 16.4682 135.484 16.9325 134.663 17.3057C134.03 17.5993 133.373 17.8387 132.7 18.0213C131.368 18.3816 130.015 18.4301 128.653 18.3617C128.007 18.3116 127.367 18.2005 126.741 18.03C125.949 17.8346 125.187 17.5302 124.479 17.1255C123.19 16.4119 122.106 15.3792 121.33 14.1264C120.874 13.3727 120.52 12.5612 120.278 11.7136C120.201 11.4083 120.141 11.0989 120.099 10.7868C120.003 10.1476 119.971 9.50039 120.004 8.85483C120.037 7.7552 120.274 6.67133 120.703 5.65811C121.255 4.32249 122.12 3.13947 123.226 2.20919C123.971 1.58105 124.815 1.08215 125.725 0.733209C126.626 0.379622 127.576 0.162301 128.541 0.0883997C128.917 0.0398835 129.295 0.0191203 129.673 0.0262793C130.584 0.0896421 131.493 0.140581 132.39 0.359245C133.662 0.682576 134.86 1.25012 135.915 2.03028C136.124 2.18061 136.324 2.34461 136.536 2.49246C136.661 2.57694 136.661 2.63037 136.56 2.7484C135.914 3.5162 135.279 4.29519 134.639 5.06797C134.399 5.35745 134.152 5.64072 133.911 5.9302C133.805 6.05444 133.714 6.06935 133.579 5.95257C132.89 5.35227 132.084 4.90169 131.211 4.6294C130.925 4.51972 130.62 4.46411 130.313 4.4654C130.082 4.48155 129.846 4.4008 129.624 4.39334C129.267 4.38058 128.91 4.4195 128.564 4.50889C127.898 4.67961 127.278 4.99489 126.748 5.4323C126.218 5.86971 125.791 6.41851 125.498 7.03967C125.102 7.82102 124.93 8.69636 125.001 9.56921C125.125 10.9433 125.577 12.1783 126.7 13.0703C127.303 13.5612 128.017 13.8969 128.78 14.0481C129.306 14.14 129.842 14.1679 130.375 14.1313C131.114 14.096 131.833 13.8851 132.474 13.5163C132.533 13.4795 132.582 13.4264 132.613 13.3633C132.644 13.3003 132.656 13.2297 132.649 13.1598C132.644 12.6537 132.644 12.1476 132.649 11.6416C132.649 11.403 132.557 11.2949 132.301 11.2974C131.348 11.3086 130.396 11.2974 129.443 11.3061C129.228 11.3061 129.163 11.2502 129.165 11.0315C129.175 10.0086 129.175 8.9857 129.165 7.96278C129.165 7.74039 129.235 7.69069 129.446 7.69194C130.702 7.70312 131.965 7.70312 133.228 7.70312Z" fill="#EF9020"/>
<path d="M18.7301 9.18418C18.7301 6.35273 18.7301 3.52129 18.7227 0.69108C18.7227 0.428932 18.7897 0.374266 19.0432 0.375509C23.568 0.383792 28.0925 0.383792 32.6165 0.375509C32.8575 0.375509 32.9209 0.43266 32.9184 0.676172C32.9047 1.87385 32.901 3.07278 32.9184 4.2717C32.9184 4.55373 32.8364 4.5997 32.5755 4.5997C29.6869 4.58976 26.7995 4.5997 23.9109 4.58479C23.6252 4.58479 23.5755 4.66679 23.583 4.92521C23.6016 5.59611 23.6003 6.26949 23.583 6.94039C23.583 7.16403 23.6463 7.20627 23.8575 7.20627C26.4877 7.19757 29.1166 7.20627 31.7468 7.19509C31.9953 7.19509 32.05 7.25721 32.0475 7.49699C32.0334 8.59197 32.0334 9.68694 32.0475 10.7819C32.0475 11.0118 31.9965 11.0714 31.7617 11.0702C29.1527 11.0602 26.5436 11.0702 23.9346 11.0565C23.6314 11.0565 23.578 11.1534 23.5842 11.4218C23.6003 12.1038 23.6078 12.7884 23.5842 13.4668C23.573 13.76 23.6774 13.7923 23.9296 13.791C26.8592 13.7836 29.7888 13.791 32.7184 13.7798C32.978 13.7798 33.0476 13.8432 33.0451 14.1016C33.0315 15.3204 33.0339 16.5392 33.0451 17.7593C33.0451 17.963 32.9905 18.0078 32.7892 18.0078C28.1923 18.0028 23.5954 18.0028 18.9985 18.0078C18.7338 18.0078 18.7289 17.9022 18.7289 17.7021C18.7297 14.8653 18.7301 12.026 18.7301 9.18418Z" fill="#020203"/>
<path d="M85.0748 9.17794C85.0748 6.34774 85.0748 3.51754 85.0674 0.687333C85.0674 0.418973 85.1432 0.375488 85.3916 0.375488C89.9157 0.382943 94.4389 0.382943 98.9612 0.375488C99.2035 0.375488 99.2656 0.435124 99.2631 0.676151C99.2495 1.87507 99.247 3.07275 99.2631 4.27168C99.2631 4.55246 99.1824 4.59967 98.9215 4.59967C96.0329 4.58973 93.1455 4.59967 90.2569 4.58476C89.9761 4.58476 89.9202 4.65931 89.9277 4.92394C89.9476 5.59484 89.9438 6.26574 89.9277 6.93788C89.9277 7.15655 89.9823 7.20624 90.1985 7.20624C92.8175 7.19755 95.4365 7.20624 98.0543 7.19382C98.3276 7.19382 98.3922 7.26091 98.3885 7.53051C98.3694 8.60726 98.3694 9.68153 98.3885 10.7533C98.3885 11.0217 98.3065 11.0701 98.0605 11.0689C95.4626 11.0602 92.8647 11.0689 90.2669 11.0552C89.9749 11.0552 89.924 11.1496 89.9289 11.4043C89.9438 12.1063 89.9476 12.8095 89.9289 13.5164C89.9215 13.7649 90.0022 13.796 90.2221 13.796C93.1617 13.7885 96.1012 13.796 99.0432 13.7848C99.3116 13.7848 99.3936 13.8407 99.3898 14.1178C99.3749 15.3254 99.3787 16.5342 99.3898 17.7431C99.3898 17.9518 99.3488 18.0177 99.124 18.0177C94.5279 18.0102 89.931 18.0102 85.3333 18.0177C85.1034 18.0177 85.0699 17.9406 85.0699 17.7369C85.0732 14.8818 85.0748 12.0289 85.0748 9.17794Z" fill="#020203"/>
<path d="M10.1338 18.352C9.71015 18.352 9.27903 18.4004 8.86407 18.3395C8.36209 18.2692 7.86618 18.1608 7.38064 18.0153C6.91519 17.867 6.45885 17.6915 6.01399 17.4897C5.41277 17.213 4.84643 16.866 4.3268 16.456C3.17757 15.5739 2.37622 14.4185 1.75501 13.1388C1.52608 12.622 1.34436 12.0856 1.21208 11.5361C0.902723 10.4117 0.947449 9.27244 1.00584 8.13937C1.04534 7.59467 1.15132 7.05686 1.32141 6.5379C1.51821 5.88697 1.78481 5.25922 2.11655 4.66559C2.66266 3.67281 3.39594 2.79524 4.27586 2.08139C5.00219 1.51115 5.79891 1.03679 6.64637 0.670012C7.11973 0.458802 7.6403 0.355682 8.1559 0.238896C9.14069 0.0157437 10.1544 -0.0513356 11.16 0.0401109C12.6322 0.130626 14.0597 0.581135 15.3171 1.35209C16.0983 1.84051 16.7945 2.45321 17.3783 3.16601C17.4056 3.19831 17.4379 3.21446 17.4615 3.24055C17.8616 3.68037 17.8566 3.69652 17.3957 4.05681C16.5521 4.71529 15.7209 5.38868 14.8661 6.03224C14.6771 6.16183 14.4962 6.3029 14.3245 6.45466C14.1443 6.6286 14.0375 6.56151 13.9008 6.40869C13.4299 5.88191 12.9417 5.37874 12.3055 5.04204C11.8608 4.78481 11.3632 4.63267 10.8507 4.59726C10.3438 4.57863 9.82321 4.51651 9.33494 4.62832C8.50755 4.80728 7.76244 5.25452 7.2154 5.90055C6.81228 6.40488 6.50413 6.97824 6.30595 7.59271C6.04941 8.35698 5.98122 9.17191 6.10717 9.96819C6.27862 11.2106 6.79546 12.3052 7.83536 13.0742C8.30624 13.4351 8.85444 13.6817 9.43682 13.7948C9.80337 13.8777 10.18 13.9075 10.555 13.883C11.3849 13.796 12.1701 13.5761 12.8485 13.0431C13.2681 12.7184 13.6565 12.3553 14.0089 11.9585C14.1754 11.7697 14.2835 11.761 14.4847 11.9076C15.2587 12.4692 16.0489 13.0096 16.8291 13.5637C17.141 13.7849 17.4342 14.0358 17.7547 14.2446C17.9076 14.3452 17.915 14.4036 17.8131 14.544C17.0056 15.6485 16.0638 16.594 14.845 17.2649C14.2014 17.6068 13.524 17.8807 12.8236 18.0824C12.5254 18.173 12.1875 18.2066 11.8794 18.27C11.2955 18.3992 10.7128 18.3147 10.1338 18.352Z" fill="#050506"/>
<path d="M214.906 6.71894C214.906 8.36388 214.906 10.0092 214.906 11.655L209.007 11.6637C208.595 11.6637 208.595 11.6637 208.595 12.0762C208.595 13.9572 208.595 15.837 208.595 17.7167C208.595 17.9354 208.56 18.0161 208.314 18.0137C206.844 18 205.374 18.0025 203.904 18.0137C203.667 18.0137 203.596 17.9553 203.598 17.708C203.609 15.7873 203.598 13.8653 203.61 11.9433C203.61 11.7072 203.549 11.66 203.322 11.6612C201.396 11.6699 199.47 11.6612 197.546 11.6724C197.316 11.6724 197.256 11.6227 197.259 11.3879C197.271 9.92186 197.271 8.45499 197.259 6.9873C197.259 6.75 197.326 6.70403 197.551 6.70527C199.477 6.71521 201.402 6.70527 203.327 6.71645C203.567 6.71645 203.611 6.65185 203.61 6.42697C203.6 4.50621 203.61 2.5842 203.598 0.663442C203.598 0.423657 203.665 0.377688 203.888 0.37893C205.368 0.388041 206.849 0.388041 208.329 0.37893C208.552 0.37893 208.596 0.443536 208.595 0.654745C208.586 2.55439 208.595 4.45527 208.582 6.35615C208.582 6.63942 208.653 6.72018 208.937 6.71769C210.811 6.70651 212.685 6.71769 214.558 6.71769C214.679 6.709 214.792 6.71521 214.906 6.71894Z" fill="#020203"/>
<path d="M59.586 0.381627C62.0708 0.381627 64.5556 0.381627 67.0404 0.381627C67.2653 0.381627 67.3336 0.423869 67.3311 0.663653C67.3162 1.92345 67.3162 3.18367 67.3311 4.4443C67.3311 4.67539 67.2727 4.7313 67.0416 4.72881C65.4998 4.71763 63.9567 4.72881 62.4149 4.71514C62.1292 4.71514 62.0869 4.79839 62.0882 5.05556C62.0956 9.24993 62.0882 13.4443 62.1006 17.6374C62.1006 17.9294 62.036 18.0238 61.7279 18.0201C60.2892 18.0052 58.8504 18.0077 57.4117 18.0201C57.1633 18.0201 57.1098 17.9518 57.1098 17.7132C57.1173 13.499 57.1098 9.28472 57.1235 5.07047C57.1235 4.77229 57.0303 4.71639 56.7595 4.71763C55.2065 4.72881 53.6534 4.71763 52.1017 4.72881C51.8644 4.72881 51.7886 4.67042 51.7911 4.42442C51.8043 3.19609 51.8043 1.96694 51.7911 0.736955C51.7911 0.464868 51.8445 0.379142 52.1352 0.380384C54.6176 0.386596 57.1024 0.381627 59.586 0.381627Z" fill="#050506"/>
<path d="M162.264 0.381478C164.728 0.381478 167.191 0.381478 169.654 0.374023C169.916 0.374023 169.978 0.442356 169.974 0.698292C169.961 1.92703 169.963 3.15702 169.974 4.38576C169.974 4.63424 169.912 4.71872 169.646 4.71748C168.105 4.70381 166.563 4.71748 165.02 4.70506C164.771 4.70506 164.717 4.76966 164.718 5.01069C164.725 9.22493 164.718 13.4404 164.73 17.6547C164.73 17.9429 164.652 18.0075 164.375 18.0038C162.967 17.9905 161.559 17.9905 160.151 18.0038C159.856 18.0038 159.752 17.9541 159.753 17.6211C159.767 13.4268 159.759 9.23239 159.769 5.03926C159.769 4.76096 159.697 4.70133 159.429 4.70381C157.897 4.71748 156.365 4.70381 154.832 4.71624C154.583 4.71624 154.515 4.65412 154.518 4.4106C154.528 3.16074 154.528 1.91047 154.518 0.659777C154.518 0.422477 154.585 0.375266 154.811 0.375266C157.296 0.383963 159.779 0.381478 162.264 0.381478Z" fill="#2EA439"/>
<path d="M106.332 9.17304C106.332 6.34283 106.332 3.51263 106.332 0.682424C106.332 0.446366 106.38 0.373064 106.63 0.375549C108.059 0.387973 109.487 0.387973 110.915 0.375549C111.164 0.375549 111.216 0.452578 111.216 0.684909C111.216 4.87928 111.216 9.0724 111.206 13.2668C111.206 13.6668 111.309 13.7488 111.677 13.7476C114.254 13.7376 116.83 13.7476 119.408 13.7376C119.676 13.7376 119.781 13.7824 119.772 14.0818C119.753 15.3006 119.76 16.5206 119.772 17.7394C119.772 17.932 119.735 18.0028 119.524 18.0028C115.208 17.9954 110.892 17.9954 106.576 18.0028C106.338 18.0028 106.342 17.896 106.342 17.7258C106.336 14.8757 106.333 12.0248 106.332 9.17304Z" fill="#E22124"/>
<path d="M190.679 9.18649C190.679 6.35629 190.679 3.52484 190.679 0.694634C190.679 0.434971 190.745 0.371608 191.002 0.374093C192.431 0.388174 193.859 0.388174 195.287 0.374093C195.535 0.374093 195.645 0.417577 195.645 0.708301C195.635 6.36043 195.635 12.0117 195.645 17.6622C195.645 17.9107 195.583 18.0026 195.318 18.0001C193.869 17.9885 192.42 17.9885 190.969 18.0001C190.733 18.0001 190.68 17.9355 190.681 17.7069C190.68 14.8684 190.679 12.0283 190.679 9.18649Z" fill="#80328A"/>
<path d="M191.187 32.4867V32.1351C191.187 30.1212 191.187 28.1073 191.18 26.0933C191.18 25.8448 191.253 25.784 191.487 25.7939C191.911 25.8113 192.337 25.8113 192.76 25.7939C192.985 25.784 193.052 25.8399 193.05 26.0784C193.037 27.4823 193.05 28.8875 193.05 30.2926C193.05 32.0482 193.05 33.8037 193.05 35.5605C193.05 35.794 192.993 35.8611 192.762 35.8475C192.421 35.8276 192.078 35.8325 191.738 35.8475C191.652 35.8551 191.565 35.8383 191.488 35.799C191.411 35.7596 191.347 35.6993 191.303 35.6251C190.83 34.9827 190.326 34.364 189.839 33.7316C189.063 32.7216 188.295 31.7028 187.489 30.7151C187.084 30.2181 186.723 29.6888 186.327 29.1869C186.28 29.1285 186.235 28.9782 186.126 29.0204C186.017 29.0627 186.079 29.1857 186.079 29.2689C186.079 31.1897 186.079 33.1108 186.079 35.0324C186.079 35.2287 186.069 35.425 186.079 35.6201C186.089 35.7754 186.046 35.845 185.879 35.8425C185.382 35.8363 184.885 35.8325 184.388 35.8425C184.17 35.8425 184.227 35.7058 184.227 35.594C184.227 34.3226 184.227 33.052 184.227 31.7823C184.227 29.8926 184.235 28.0016 184.219 26.1119C184.219 25.825 184.302 25.7715 184.56 25.7864C184.933 25.8088 185.306 25.8013 185.679 25.7864C185.76 25.7788 185.842 25.7942 185.915 25.8309C185.988 25.8676 186.049 25.9241 186.091 25.9939C186.581 26.6565 187.081 27.3125 187.591 27.9619C188.516 29.1496 189.454 30.3299 190.38 31.5164C190.628 31.8382 190.869 32.1699 191.113 32.4979L191.187 32.4867Z" fill="#0B0A0D"/>
<path d="M50.6495 32.0393C50.9539 32.4729 51.2458 32.8966 51.5452 33.3165C52.0944 34.0868 52.6464 34.8558 53.2014 35.6236C53.2424 35.682 53.3256 35.7367 53.2697 35.8075C53.2449 35.8411 53.1591 35.8398 53.102 35.8411C52.5218 35.8411 51.9416 35.8411 51.3626 35.8411C51.1949 35.8411 51.1266 35.7442 51.047 35.6323C50.4672 34.8223 49.8875 34.0127 49.3077 33.2034C49.1289 32.9639 48.963 32.7151 48.8107 32.458C48.7449 32.3437 48.6641 32.3611 48.5833 32.3611C47.9733 32.3611 47.3621 32.3611 46.7508 32.3536C46.5533 32.3536 46.5706 32.4543 46.5706 32.5835C46.5706 33.5774 46.5706 34.5713 46.5769 35.559C46.5769 35.764 46.5446 35.8485 46.3135 35.8386C45.8587 35.8199 45.4028 35.8274 44.9468 35.8386C44.7741 35.8386 44.7207 35.7864 44.7207 35.61C44.7257 32.417 44.7257 29.2244 44.7207 26.0323C44.7207 25.8347 44.7841 25.7838 44.9692 25.7838C46.6464 25.7838 48.3237 25.7192 49.9984 25.8136C51.1874 25.8807 52.2149 26.4423 52.738 27.584C53.0303 28.2153 53.1063 28.9253 52.9541 29.6042C52.7988 30.326 52.492 30.9087 51.9354 31.3734C51.5669 31.6961 51.1257 31.9246 50.6495 32.0393ZM46.5719 29.0724C46.5719 29.5582 46.5818 30.044 46.5719 30.5285C46.5657 30.7236 46.6216 30.7671 46.8117 30.7646C47.6081 30.7534 48.4057 30.7646 49.2021 30.7646C49.5055 30.7534 49.8045 30.6886 50.0854 30.5733C50.3377 30.4879 50.5648 30.341 50.7459 30.1457C50.9271 29.9505 51.0566 29.7131 51.1228 29.4551C51.2719 28.9581 51.0657 28.25 50.7327 27.9418C50.3401 27.6068 49.84 27.4242 49.3238 27.4275C48.4765 27.3977 47.6267 27.4275 46.7781 27.4151C46.6141 27.4151 46.5694 27.461 46.5731 27.6225C46.5781 28.0984 46.5719 28.5842 46.5719 29.0724Z" fill="#0E0D10"/>
<path d="M172.59 35.8411C171.873 35.8411 171.213 35.8522 170.555 35.8411C170.296 35.8349 170.21 35.5665 170.095 35.4C169.645 34.744 169.188 34.0942 168.715 33.4544C168.499 33.1624 168.307 32.8531 168.094 32.5586C168.06 32.4984 168.01 32.4489 167.949 32.4156C167.888 32.3822 167.82 32.3664 167.751 32.3698C167.182 32.3698 166.611 32.3785 166.042 32.3698C165.86 32.3698 165.823 32.4269 165.824 32.5959C165.831 33.5898 165.824 34.5837 165.832 35.5715C165.832 35.7802 165.79 35.8634 165.563 35.8547C165.108 35.8373 164.651 35.8411 164.196 35.8547C164.016 35.8547 163.978 35.7963 163.978 35.6261C163.983 32.4232 163.983 29.2203 163.978 26.0173C163.978 25.862 164.009 25.8024 164.179 25.8036C165.866 25.8111 167.557 25.7415 169.239 25.8347C170.482 25.9043 171.49 26.5267 172.026 27.7095C172.217 28.1346 172.302 28.5997 172.274 29.065C172.2 30.1633 171.789 31.1013 170.784 31.6827C170.567 31.8167 170.333 31.92 170.088 31.9896C169.883 32.0393 169.904 32.1287 169.987 32.2381C170.608 33.0071 171.134 33.8532 171.726 34.6359C172.02 34.9975 172.277 35.3926 172.59 35.8411ZM165.831 29.065C165.831 29.5507 165.84 30.0365 165.831 30.5211C165.831 30.7074 165.871 30.7696 166.067 30.7696C166.865 30.7571 167.661 30.7621 168.459 30.7696C168.752 30.7664 169.042 30.7078 169.314 30.5969C169.854 30.3819 170.257 30.034 170.374 29.383C170.415 29.1725 170.414 28.9559 170.372 28.7457C170.329 28.5354 170.245 28.3357 170.125 28.158C169.765 27.5902 169.151 27.4759 168.561 27.4374C167.726 27.3815 166.885 27.4287 166.046 27.4175C165.855 27.4175 165.832 27.4884 165.835 27.6499C165.831 28.1145 165.831 28.5891 165.831 29.065Z" fill="#0B0A0D"/>
<path d="M130.818 30.8241C130.818 29.2438 130.818 27.6635 130.818 26.0831C130.818 25.8409 130.894 25.7924 131.114 25.7936C132.448 25.8023 133.785 25.7675 135.12 25.8085C136.197 25.8421 137.162 26.2173 138.05 26.8584C138.829 27.4291 139.413 28.2261 139.721 29.1407C139.97 29.8002 140.06 30.5086 139.986 31.2093C139.838 32.4318 139.412 33.5413 138.488 34.3961C137.876 34.9577 137.143 35.3717 136.346 35.6062C135.707 35.785 135.045 35.865 134.383 35.8435C133.296 35.8435 132.21 35.8348 131.123 35.8435C130.874 35.8435 130.817 35.7727 130.82 35.5316C130.825 33.965 130.818 32.3946 130.818 30.8241ZM132.666 30.7782C132.666 31.8317 132.666 32.8903 132.666 33.9364C132.666 34.1501 132.725 34.2271 132.945 34.2122C133.721 34.1625 134.498 34.2706 135.277 34.1265C135.817 34.0331 136.329 33.8209 136.776 33.5053C137.483 33.0083 137.853 32.2803 137.992 31.4727C138.135 30.6403 138.044 29.7855 137.606 29.0425C136.97 27.9641 135.941 27.4908 134.726 27.4125C134.128 27.374 133.526 27.4125 132.927 27.4001C132.697 27.3926 132.662 27.4721 132.665 27.6771C132.671 28.7145 132.666 29.7457 132.666 30.7782Z" fill="#0E0D10"/>
<path d="M2.35069 30.8231C2.35069 29.2428 2.35069 27.6637 2.35069 26.0846C2.35069 25.8584 2.39542 25.7901 2.63272 25.7926C3.96706 25.805 5.30265 25.774 6.63575 25.8063C7.71789 25.8336 8.68821 26.21 9.57529 26.8412C10.404 27.4313 10.9134 28.2389 11.265 29.1533C11.3677 29.4041 11.4245 29.6713 11.4327 29.9422C11.4327 30.259 11.5569 30.5634 11.5296 30.8976C11.4439 32.0481 11.1407 33.1029 10.3692 34.0037C9.79435 34.6678 9.05913 35.1738 8.23349 35.4734C7.64556 35.7062 7.01958 35.8279 6.38727 35.8325C5.12499 35.8325 3.86394 35.8325 2.60166 35.8399C2.40412 35.8399 2.34448 35.7915 2.34572 35.5915C2.35442 34.0024 2.35069 32.4121 2.35069 30.8231ZM4.20685 30.7871C4.20685 31.8083 4.21555 32.8296 4.20685 33.8521C4.20685 34.118 4.25157 34.2397 4.55721 34.2161C5.31135 34.1565 6.06922 34.2695 6.82709 34.1267C7.36541 34.0311 7.87635 33.8191 8.32419 33.5055C9.02366 33.0147 9.3939 32.3016 9.53181 31.5052C9.67841 30.6579 9.58647 29.7931 9.13051 29.034C8.46706 27.9271 7.41599 27.4674 6.16612 27.4189C5.59834 27.3941 5.02808 27.4189 4.4603 27.409C4.2553 27.409 4.20561 27.4636 4.21182 27.6574C4.21306 28.6998 4.20685 29.7447 4.20685 30.7871Z" fill="#0B0A0D"/>
<path d="M91.2787 30.818C91.2787 29.2377 91.2787 27.6573 91.2725 26.077C91.2725 25.8422 91.3309 25.79 91.5607 25.7925C92.8441 25.8049 94.1288 25.7726 95.4122 25.8049C97.0509 25.8459 98.4064 26.5181 99.4189 27.8052C99.8467 28.3616 100.138 29.0105 100.27 29.6999C100.368 30.2197 100.397 30.7503 100.356 31.2777C100.311 32.1474 100 32.9189 99.5183 33.6507C98.9655 34.4906 98.1827 35.0248 97.3056 35.4261C96.9588 35.5765 96.593 35.6785 96.2185 35.7293C94.6369 35.9715 93.0491 35.769 91.4663 35.846C91.2339 35.8572 91.2812 35.7218 91.2812 35.5901C91.2795 33.9998 91.2787 32.4091 91.2787 30.818ZM93.0379 30.777C93.0379 31.8306 93.0379 32.8891 93.0379 33.9377C93.0379 34.1514 93.0951 34.2284 93.3162 34.2135C94.1139 34.1589 94.9127 34.2794 95.7141 34.1278C96.0703 34.0787 96.4166 33.9739 96.7403 33.8172C97.8895 33.1774 98.3964 32.1325 98.4946 30.8528C98.5107 30.6404 98.3704 30.4714 98.394 30.2689C98.43 29.8688 98.2536 29.5098 98.0809 29.1867C97.4597 28.0375 96.4434 27.4896 95.1649 27.4163C94.535 27.3803 93.9014 27.4163 93.2715 27.4051C93.0702 27.4051 93.0367 27.4648 93.0379 27.6474C93.0429 28.691 93.0379 29.7346 93.0379 30.777Z" fill="#050506"/>
<path d="M70.1927 30.8307C70.1927 29.2516 70.1927 27.6712 70.1865 26.0909C70.1865 25.8623 70.2399 25.7927 70.4735 25.794C72.8018 25.8014 75.1301 25.8014 77.4583 25.794C77.6807 25.794 77.7665 25.8461 77.7503 26.0859C77.7267 26.4259 77.7267 26.7672 77.7503 27.1072C77.7677 27.3557 77.6832 27.4165 77.4434 27.4153C75.7575 27.4066 74.0703 27.4153 72.3843 27.4041C72.0986 27.4041 72.0265 27.4762 72.0365 27.7545C72.0588 28.3831 72.0539 29.0143 72.0365 29.6442C72.0303 29.8678 72.1011 29.9101 72.311 29.9088C73.7808 29.8989 75.2506 29.9088 76.7204 29.8976C76.9688 29.8976 77.0459 29.966 77.0359 30.207C77.0198 30.5797 77.0223 30.9524 77.0359 31.3252C77.0434 31.5463 76.9788 31.6233 76.739 31.6209C75.2692 31.6084 73.8007 31.6209 72.3309 31.6109C72.1135 31.6109 72.0278 31.6407 72.0365 31.888C72.0576 32.5489 72.0526 33.2099 72.0365 33.8758C72.0303 34.1243 72.0762 34.2287 72.3707 34.2249C74.0678 34.2075 75.7649 34.2249 77.4646 34.21C77.713 34.21 77.7764 34.2771 77.764 34.5157C77.7428 34.8958 77.7515 35.2797 77.764 35.6612C77.764 35.8078 77.7267 35.8537 77.5751 35.8525C75.1955 35.8525 72.8155 35.8525 70.435 35.8525C70.2176 35.8525 70.1865 35.763 70.1865 35.5779C70.1952 33.9914 70.1927 32.411 70.1927 30.8307Z" fill="#0E0D10"/>
<path d="M204.705 30.812C204.705 29.2317 204.705 27.6514 204.705 26.071C204.705 25.8648 204.741 25.7927 204.968 25.794C207.265 25.8039 209.562 25.8039 211.86 25.794C212.126 25.794 212.193 25.8722 212.175 26.1244C212.15 26.4644 212.15 26.8057 212.175 27.1457C212.198 27.4178 212.051 27.4141 211.862 27.4141C210.175 27.4141 208.489 27.4141 206.802 27.4066C206.553 27.4066 206.446 27.4402 206.459 27.7309C206.487 28.3595 206.478 28.9907 206.459 29.6206C206.459 29.843 206.499 29.9138 206.74 29.9125C208.209 29.8989 209.679 29.9051 211.149 29.9051C211.534 29.9051 211.543 29.9163 211.544 30.3076C211.544 30.6282 211.534 30.9487 211.544 31.268C211.555 31.5351 211.437 31.6184 211.181 31.6171C209.702 31.6097 208.222 31.6171 206.742 31.6072C206.511 31.6072 206.449 31.6606 206.455 31.8942C206.473 32.575 206.469 33.2608 206.455 33.9379C206.455 34.1516 206.512 34.2175 206.733 34.2162C208.441 34.2063 210.148 34.2162 211.855 34.2026C212.152 34.2026 212.216 34.292 212.2 34.5616C212.178 34.912 212.186 35.2648 212.2 35.6152C212.2 35.7779 212.179 35.8488 211.988 35.8475C209.629 35.8417 207.268 35.8417 204.906 35.8475C204.671 35.8475 204.697 35.7233 204.697 35.5816C204.703 33.9914 204.705 32.4015 204.705 30.812Z" fill="#0B0A0D"/>
<path d="M12.8904 30.8121C12.8904 29.2417 12.8904 27.6713 12.8904 26.1009C12.8904 25.8798 12.919 25.7878 13.1811 25.7891C15.4796 25.8015 17.7772 25.8015 20.074 25.7891C20.3225 25.7891 20.3846 25.8649 20.371 26.0984C20.3497 26.4294 20.3497 26.7614 20.371 27.0924C20.3896 27.3408 20.325 27.4204 20.0579 27.4179C18.3707 27.4042 16.6847 27.4179 14.9975 27.4042C14.7168 27.4042 14.6372 27.4688 14.6472 27.7521C14.6708 28.3919 14.6633 29.033 14.6472 29.6728C14.6472 29.8691 14.7019 29.9101 14.8882 29.9089C16.3791 29.9002 17.87 29.9089 19.3609 29.9002C19.6342 29.9002 19.751 29.9872 19.7336 30.2729C19.7162 30.6034 19.7187 30.9339 19.7336 31.2668C19.7448 31.5278 19.6417 31.6247 19.3783 31.6234C17.8986 31.616 16.4189 31.6234 14.9379 31.6147C14.7205 31.6147 14.636 31.6458 14.6435 31.893C14.6646 32.554 14.6596 33.2149 14.6435 33.8809C14.6435 34.1294 14.6832 34.2337 14.9777 34.2312C16.6748 34.2138 18.3732 34.2312 20.0715 34.2151C20.3312 34.2151 20.407 34.2784 20.3908 34.5369C20.3721 34.9093 20.3721 35.2825 20.3908 35.655C20.3908 35.8178 20.3449 35.8613 20.1834 35.86C17.8236 35.8551 15.463 35.8551 13.1016 35.86C12.8718 35.86 12.8879 35.7507 12.8879 35.5991C12.8896 33.9997 12.8904 32.4041 12.8904 30.8121Z" fill="#0B0A0D"/>
<path d="M116.871 30.8046C116.871 29.2243 116.871 27.6439 116.871 26.0636C116.871 25.8474 116.925 25.7927 117.142 25.794C119.44 25.8014 121.737 25.8014 124.034 25.794C124.266 25.794 124.363 25.8437 124.344 26.0984C124.319 26.4292 124.319 26.7614 124.344 27.0923C124.363 27.3495 124.287 27.424 124.026 27.4203C122.836 27.4066 121.646 27.4203 120.455 27.4203C119.917 27.4203 119.38 27.4203 118.84 27.4203C118.679 27.4203 118.63 27.4613 118.633 27.6253C118.643 28.3074 118.645 28.9919 118.633 29.6703C118.633 29.8765 118.69 29.9188 118.89 29.9188C120.37 29.9101 121.849 29.9188 123.329 29.9101C123.615 29.9101 123.739 29.9958 123.722 30.2927C123.704 30.6122 123.704 30.9324 123.722 31.2519C123.734 31.5277 123.631 31.6246 123.349 31.6246C121.88 31.6146 120.411 31.6246 118.941 31.6122C118.671 31.6122 118.623 31.6904 118.629 31.9377C118.648 32.5874 118.649 33.2385 118.629 33.8895C118.62 34.1653 118.709 34.2262 118.978 34.2237C120.675 34.21 122.372 34.2237 124.072 34.2113C124.309 34.2113 124.394 34.2635 124.379 34.5132C124.357 34.8934 124.367 35.2773 124.379 35.6587C124.379 35.804 124.347 35.8537 124.191 35.8525C121.822 35.8475 119.453 35.8475 117.082 35.8525C116.841 35.8525 116.881 35.7196 116.881 35.5804L116.871 30.8046Z" fill="#0B0A0D"/>
<path d="M141.346 30.8118C141.346 29.2314 141.346 27.6511 141.346 26.0707C141.346 25.8608 141.387 25.7949 141.61 25.7949C143.93 25.8032 146.249 25.8032 148.568 25.7949C148.759 25.7949 148.841 25.8285 148.829 26.0434C148.808 26.4042 148.808 26.766 148.829 27.1268C148.844 27.3616 148.77 27.4163 148.542 27.415C146.845 27.4051 145.146 27.415 143.448 27.4014C143.157 27.4014 143.094 27.4821 143.104 27.7554C143.125 28.3642 143.13 28.9742 143.104 29.583C143.091 29.8725 143.191 29.911 143.447 29.9085C144.906 29.8961 146.365 29.9085 147.825 29.8986C148.102 29.8986 148.209 29.9955 148.198 30.2713C148.181 30.6006 148.183 30.9323 148.198 31.2652C148.209 31.5311 148.097 31.6181 147.837 31.6168C146.358 31.6094 144.878 31.6168 143.398 31.6081C143.17 31.6081 143.102 31.6541 143.109 31.8914C143.127 32.5623 143.124 33.2345 143.109 33.9054C143.109 34.1414 143.165 34.2184 143.417 34.2172C145.125 34.2048 146.832 34.2172 148.541 34.2035C148.809 34.2035 148.87 34.2806 148.855 34.5303C148.832 34.8906 148.841 35.2534 148.855 35.6137C148.855 35.7764 148.834 35.8485 148.642 35.8472C146.283 35.8414 143.922 35.8414 141.561 35.8472C141.326 35.8472 141.353 35.723 141.353 35.5814C141.349 33.9894 141.347 32.3996 141.346 30.8118Z" fill="#0B0A0D"/>
<path d="M177.999 33.473H176.135C175.606 33.473 175.595 33.4892 175.412 33.97C175.191 34.5589 174.94 35.1353 174.677 35.7093C174.627 35.8174 174.586 35.841 174.485 35.841C173.977 35.841 173.47 35.8323 172.964 35.841C172.791 35.841 172.751 35.7541 172.812 35.6385C173.169 34.9651 173.451 34.257 173.752 33.5612C174.102 32.7586 174.456 31.956 174.792 31.1472C175.165 30.2502 175.589 29.3718 175.983 28.4823C176.21 27.9691 176.421 27.4473 176.645 26.9317C176.805 26.559 176.981 26.1975 177.134 25.8235C177.149 25.7757 177.181 25.735 177.224 25.7089C177.267 25.6829 177.317 25.6733 177.367 25.6819C177.813 25.6819 178.259 25.7017 178.702 25.6744C178.921 25.662 178.937 25.8521 178.976 25.9341C179.296 26.6373 179.558 27.3666 179.892 28.0623C180.265 28.845 180.586 29.6501 180.952 30.4353C181.191 30.9447 181.402 31.4702 181.622 31.9908C181.925 32.7089 182.28 33.4072 182.575 34.129C182.776 34.626 182.987 35.1068 183.213 35.5876C183.282 35.7317 183.271 35.8547 183.033 35.8361C182.631 35.8162 182.227 35.8361 181.823 35.8361C181.335 35.8361 181.28 35.8038 181.132 35.3391C180.95 34.7626 180.635 34.2383 180.463 33.6606C180.441 33.5942 180.397 33.5374 180.338 33.5003C180.279 33.4633 180.209 33.4483 180.14 33.4581C179.428 33.4854 178.713 33.473 177.999 33.473ZM177.928 27.9952C177.844 28.4611 177.628 28.8214 177.46 29.1929C177.106 29.9769 176.826 30.7919 176.419 31.5535C176.363 31.6566 176.366 31.7771 176.557 31.7672C176.747 31.7572 176.97 31.7672 177.178 31.7672C177.923 31.7672 178.669 31.7672 179.414 31.7672C179.491 31.7672 179.684 31.8318 179.614 31.6504C179.451 31.2267 179.241 30.8205 179.064 30.408C178.833 29.875 178.626 29.3308 178.379 28.8065C178.255 28.5357 178.206 28.2238 177.928 27.9952Z" fill="#111012"/>
<path d="M43.8061 35.8401C43.206 35.8401 42.591 35.8401 41.9748 35.8401C41.7673 35.8401 41.8034 35.6314 41.7773 35.5655C41.5735 35.0288 41.3039 34.5206 41.1138 33.9802C40.9349 33.4745 40.9461 33.4696 40.3932 33.4696C39.0999 33.4696 37.8053 33.482 36.512 33.4584C36.2386 33.4584 36.0995 33.5516 36.0274 33.769C35.8162 34.4125 35.4907 35.0114 35.2571 35.6413C35.2236 35.7345 35.1689 35.8388 35.0322 35.8388H33.2842C33.6706 34.9356 34.0296 34.0597 34.416 33.1925C34.9341 32.0209 35.4857 30.863 35.9877 29.6852C36.3927 28.736 36.8068 27.7905 37.2301 26.8488C37.3655 26.5444 37.5146 26.2375 37.6239 25.9207C37.6391 25.8486 37.6803 25.7846 37.7396 25.7408C37.799 25.6971 37.8723 25.6766 37.9457 25.6834C38.3594 25.6834 38.7744 25.6834 39.1881 25.6834C39.2559 25.6799 39.3229 25.6991 39.3785 25.7381C39.4341 25.777 39.4751 25.8334 39.495 25.8983C39.8565 26.7171 40.2305 27.5296 40.587 28.3508C40.9436 29.1721 41.2654 29.9821 41.6195 30.7909C42.0071 31.678 42.4221 32.5527 42.8097 33.4385C43.1278 34.1666 43.4309 34.9021 43.7241 35.6388C43.7465 35.7084 43.8633 35.7059 43.8061 35.8401ZM38.5669 27.9893C38.4984 28.059 38.4383 28.1366 38.388 28.2204C37.9208 29.3386 37.4761 30.4629 36.9803 31.5662C36.8785 31.7936 36.9456 31.7625 37.0934 31.7637C38.0438 31.7637 38.993 31.7637 39.9435 31.7637C40.1398 31.7637 40.1597 31.6693 40.1025 31.5389C39.8341 30.9301 39.5459 30.3288 39.28 29.7175C39.0378 29.1634 38.8154 28.5956 38.5669 27.9893Z" fill="#111012"/>
<path d="M61.6733 25.6559C62.7157 25.5702 63.7854 26.0485 64.8042 26.7021C64.9495 26.7952 65.1173 26.9381 64.8713 27.1841C64.6054 27.4487 64.4352 27.8053 64.2128 28.1159C64.1407 28.2165 64.0948 28.3197 63.9034 28.1793C63.4816 27.8557 63.0047 27.6112 62.4958 27.4574C61.7044 27.2363 60.8968 27.0847 60.1551 27.6276C60.0121 27.7336 59.899 27.8748 59.8267 28.0374C59.7544 28.2 59.7253 28.3785 59.7423 28.5556C59.7593 28.7328 59.8218 28.9025 59.9237 29.0484C60.0256 29.1942 60.1636 29.3113 60.324 29.3881C60.821 29.6453 61.3677 29.772 61.9106 29.9162C62.6908 30.1224 63.4885 30.3088 64.1805 30.7597C64.9023 31.2319 65.3297 31.868 65.3397 32.7625C65.3459 33.3626 65.2987 33.9328 64.9794 34.4671C64.684 34.9558 64.2521 35.3475 63.7369 35.5939C62.8275 36.0561 61.841 36.0524 60.8794 35.9393C59.7104 35.8107 58.6119 35.3159 57.7411 34.5255C57.5734 34.3739 57.5932 34.2695 57.7125 34.1291C57.9759 33.821 58.2455 33.5179 58.5014 33.2023C58.5896 33.0955 58.6567 33.0781 58.7636 33.165C59.3003 33.5862 59.8619 33.9937 60.5141 34.1826C61.1664 34.3714 61.8286 34.4795 62.5119 34.2621C62.876 34.1465 63.1828 34.0298 63.3891 33.6695C63.4701 33.5408 63.5226 33.3963 63.5429 33.2457C63.5633 33.095 63.551 32.9417 63.5069 32.7962C63.4629 32.6507 63.388 32.5164 63.2875 32.4023C63.187 32.2883 63.0632 32.1971 62.9244 32.1351C62.3927 31.8792 61.8137 31.7524 61.2397 31.6083C60.3414 31.3834 59.4221 31.1735 58.7039 30.5162C58.3101 30.1463 58.0527 29.6542 57.9734 29.1198C57.898 28.6752 57.92 28.2194 58.038 27.7842C58.1215 27.4469 58.2739 27.1305 58.4856 26.8548C58.6972 26.5792 58.9636 26.3504 59.268 26.1827C60.0557 25.733 60.4495 25.6497 61.6733 25.6559Z" fill="#0B0A0D"/>
<path d="M25.3304 30.812C25.3304 29.2316 25.3304 27.6513 25.3304 26.071C25.3304 25.907 25.3143 25.7914 25.559 25.7939C27.0188 25.8101 28.4799 25.7554 29.936 25.8225C30.9163 25.8672 31.7996 26.2524 32.4407 27.0549C32.7514 27.446 32.9644 27.9056 33.0619 28.3955C33.1522 28.7719 33.1791 29.1607 33.1414 29.546C32.9973 30.7027 32.4382 31.5972 31.3685 32.1265C30.6657 32.4802 29.885 32.6511 29.0986 32.6234C28.5296 32.6035 27.9606 32.6309 27.3916 32.6147C27.1431 32.6073 27.0835 32.6905 27.0872 32.9303C27.1021 33.8186 27.0872 34.7069 27.0984 35.594C27.0984 35.799 27.0449 35.8549 26.8437 35.8425C26.4299 35.8276 26.015 35.8251 25.6013 35.8425C25.3876 35.8512 25.3267 35.7978 25.3292 35.5754C25.3354 33.9901 25.3304 32.3998 25.3304 30.812ZM27.0897 29.1894V30.7685C27.0897 30.8803 27.0636 31.017 27.24 31.0058C28.0786 30.9549 28.9197 31.104 29.7584 30.9077C30.4653 30.7412 30.9709 30.4206 31.202 29.6864C31.2911 29.4294 31.315 29.1544 31.2716 28.886C31.2282 28.6176 31.119 28.3641 30.9536 28.1483C30.5808 27.6115 29.982 27.4799 29.3981 27.4289C28.711 27.368 28.0128 27.4165 27.3195 27.4103C27.1518 27.4103 27.0859 27.4587 27.0897 27.6401C27.0971 28.1532 27.0897 28.6701 27.0897 29.1869V29.1894Z" fill="#050506"/>
<path d="M200.131 35.9716H199.005C197.457 35.8921 196.272 35.1305 195.351 33.949C194.941 33.4003 194.656 32.7685 194.515 32.0978C194.347 31.347 194.325 30.571 194.449 29.8118C194.637 28.5992 195.256 27.5817 196.212 26.7865C196.681 26.3934 197.22 26.092 197.8 25.8982C198.173 25.774 198.546 25.6497 198.938 25.6634C199.13 25.6634 199.3 25.5565 199.476 25.5677C200.649 25.641 201.804 25.7963 202.775 26.5442C202.979 26.702 203.195 26.8424 203.386 27.0201C203.53 27.1543 203.521 27.2574 203.42 27.3767C203.111 27.7357 202.79 28.0823 202.485 28.4439C202.361 28.5905 202.314 28.4787 202.229 28.4103C201.866 28.0889 201.46 27.8196 201.023 27.6102C200.333 27.3133 199.648 27.1816 198.891 27.3704C198.37 27.5009 197.884 27.7448 197.468 28.0848C197.033 28.4498 196.708 28.9292 196.53 29.4689C196.348 29.9168 196.264 30.3983 196.282 30.8815C196.371 32.1748 196.867 33.2595 198.021 33.9304C198.62 34.2906 199.325 34.4328 200.017 34.3329C200.854 34.1944 201.629 33.8008 202.234 33.206C202.402 33.0495 202.491 33.0321 202.652 33.2172C202.916 33.5265 203.201 33.8171 203.505 34.0869C203.62 34.1863 203.616 34.2496 203.539 34.3254C203.032 34.8554 202.429 35.2846 201.762 35.5902C201.252 35.8318 200.696 35.9618 200.131 35.9716Z" fill="#0E0D10"/>
<path d="M155.293 30.812C155.293 29.2416 155.3 27.6712 155.293 26.102C155.293 25.8473 155.371 25.7976 155.605 25.7989C157.924 25.8063 160.243 25.8063 162.562 25.7989C162.778 25.7989 162.879 25.8374 162.859 26.0846C162.833 26.4038 162.833 26.7246 162.859 27.0437C162.885 27.3382 162.802 27.4252 162.495 27.4227C160.829 27.4065 159.163 27.4227 157.496 27.409C157.226 27.409 157.13 27.4575 157.14 27.7507C157.165 28.4526 157.159 29.1558 157.14 29.8628C157.14 30.0876 157.183 30.1547 157.422 30.1535C158.913 30.1398 160.404 30.1535 161.895 30.1411C162.152 30.1411 162.268 30.187 162.238 30.4765C162.211 30.7961 162.211 31.1173 162.238 31.4369C162.257 31.6854 162.182 31.7686 161.92 31.7649C160.606 31.7512 159.291 31.7574 157.977 31.7649C157.709 31.7649 157.355 31.6792 157.2 31.8133C157.045 31.9475 157.153 32.3165 157.152 32.5824C157.152 33.595 157.143 34.6063 157.152 35.6188C157.152 35.8102 157.104 35.8673 156.913 35.8599C156.458 35.8462 156.002 35.8474 155.546 35.8599C155.34 35.8599 155.298 35.789 155.298 35.5927C155.297 33.9876 155.293 32.3973 155.293 30.812Z" fill="#0E0D10"/>
<path d="M83.4588 31.6607C83.4588 32.9404 83.4501 34.2213 83.4588 35.501C83.4588 35.7644 83.4091 35.8651 83.1271 35.8489C82.7038 35.8241 82.2794 35.8241 81.8561 35.8489C81.6076 35.8638 81.5766 35.7706 81.5778 35.5545C81.5845 32.9868 81.5845 30.4163 81.5778 27.8428C81.5778 27.4428 81.5654 27.4316 81.1616 27.4316C80.3342 27.4316 79.5067 27.4241 78.6768 27.4316C78.4482 27.4316 78.3438 27.3931 78.3625 27.1334C78.3861 26.783 78.3861 26.4315 78.3625 26.0811C78.3488 25.8537 78.4097 25.7866 78.6457 25.7891C80.0012 25.8016 81.3554 25.7953 82.7109 25.7953C83.9111 25.7953 85.1112 25.7953 86.3139 25.7953C86.5065 25.7953 86.5835 25.8314 86.5723 26.0438C86.5531 26.4254 86.5531 26.8077 86.5723 27.1893C86.5835 27.4043 86.5027 27.4378 86.3114 27.4378C85.4628 27.4279 84.6143 27.4453 83.767 27.4266C83.4961 27.4266 83.4402 27.5148 83.4427 27.7608C83.4588 29.0591 83.4588 30.3599 83.4588 31.6607Z" fill="#0B0A0D"/>
<path d="M108.691 30.8207C108.691 29.2404 108.691 27.6588 108.691 26.0784C108.691 25.8474 108.742 25.7815 108.977 25.7927C109.411 25.8138 109.847 25.8113 110.28 25.7927C110.505 25.7828 110.551 25.8623 110.551 26.0735C110.544 28.6564 110.551 31.2382 110.54 33.8211C110.54 34.1255 110.603 34.2224 110.931 34.2174C112.411 34.1963 113.892 34.2087 115.372 34.2087C115.774 34.2087 115.774 34.2087 115.774 34.6237C115.774 34.9231 115.757 35.225 115.781 35.522C115.8 35.7705 115.735 35.85 115.467 35.8475C113.821 35.8338 112.175 35.8413 110.53 35.8413C110.002 35.8413 109.473 35.8313 108.946 35.8413C108.742 35.8413 108.691 35.7891 108.691 35.5928C108.695 34.0025 108.691 32.411 108.691 30.8207Z" fill="#0B0A0D"/>
<path d="M106.816 30.8517C106.816 32.4109 106.809 33.9714 106.824 35.5306C106.824 35.8002 106.741 35.8586 106.493 35.8474C106.07 35.8288 105.643 35.8325 105.22 35.8474C105.021 35.8536 104.963 35.799 104.964 35.5989C104.974 34.0087 104.964 32.4184 104.964 30.8269C104.964 29.2353 104.964 27.6662 104.964 26.0858C104.964 25.8498 105.026 25.7901 105.253 25.8001C105.666 25.8187 106.082 25.82 106.496 25.8001C106.744 25.7889 106.828 25.8498 106.825 26.1181C106.808 27.691 106.816 29.2714 106.816 30.8517Z" fill="#111012"/>
<path d="M54.5107 30.8118C54.5107 29.2327 54.5107 27.6537 54.5107 26.0746C54.5107 25.8422 54.5654 25.7776 54.7977 25.7888C55.2214 25.8099 55.6463 25.8012 56.07 25.7888C56.2339 25.7888 56.301 25.8161 56.2998 26.0025C56.294 29.2129 56.294 32.4228 56.2998 35.6324C56.2998 35.7951 56.2551 35.8423 56.0923 35.8386C55.6475 35.8287 55.2028 35.8212 54.7592 35.8386C54.5393 35.8486 54.5107 35.7641 54.5107 35.5752C54.5107 33.9949 54.5107 32.4059 54.5107 30.8118Z" fill="#020203"/>
<path d="M127.324 32.3577C126.703 32.3577 126.082 32.3515 125.461 32.3577C125.269 32.3577 125.206 32.2931 125.212 32.1092C125.221 31.6558 125.22 31.2023 125.212 30.7426C125.212 30.5711 125.272 30.509 125.446 30.5103C126.717 30.5152 127.988 30.5152 129.259 30.5103C129.47 30.5103 129.555 30.5948 129.551 30.8035C129.543 31.216 129.541 31.6284 129.551 32.0459C129.551 32.2695 129.471 32.359 129.244 32.3565C128.607 32.3528 127.966 32.3577 127.324 32.3577Z" fill="#1F1D20"/>
<path d="M151.838 30.5227C152.459 30.5227 153.08 30.5289 153.702 30.5227C153.935 30.5227 154.041 30.596 154.033 30.8407C154.021 31.2432 154.022 31.6458 154.033 32.0471C154.033 32.2645 153.966 32.3664 153.734 32.3651C152.473 32.3585 151.213 32.3585 149.952 32.3651C149.773 32.3651 149.689 32.3204 149.694 32.1241C149.704 31.671 149.704 31.2176 149.694 30.7637C149.694 30.5674 149.773 30.5152 149.952 30.5227C150.578 30.5276 151.208 30.5227 151.838 30.5227Z" fill="#1F1D20"/>
<path d="M103.469 26.9605C103.469 27.2288 103.483 27.4972 103.469 27.7655C103.417 28.68 103.037 29.3807 102.141 29.7286C101.951 29.7906 101.757 29.8387 101.56 29.8727C101.213 29.9485 101.166 29.8975 101.114 29.536C101.106 29.4773 101.087 29.4206 101.058 29.3695C100.951 29.1856 100.957 29.0738 101.228 29.0179C101.822 28.8937 102.165 28.5582 102.234 28.0078C102.257 27.8388 102.206 27.7805 102.022 27.7805C101.491 27.7805 101.491 27.7705 101.491 27.2263C101.491 26.8238 101.501 26.42 101.491 26.0187C101.485 25.8386 101.546 25.7938 101.717 25.7976C102.223 25.8075 102.731 25.8075 103.237 25.7976C103.417 25.7976 103.495 25.8286 103.485 26.0311C103.465 26.3393 103.485 26.6523 103.485 26.9605H103.469Z" fill="#111012"/>
<path d="M105.915 22.8345C106.018 22.8438 106.121 22.8438 106.224 22.8345C106.584 22.7674 106.807 22.9463 107.008 23.2159C107.408 23.7518 107.822 24.2777 108.25 24.7937C108.273 24.8174 108.289 24.8458 108.299 24.8767C108.309 24.9077 108.312 24.9404 108.307 24.9726C108.298 25.0894 108.201 25.0435 108.14 25.0447C107.798 25.0447 107.458 25.0447 107.116 25.0447C106.88 25.0447 106.787 24.8173 106.603 24.7304C106.51 24.6756 106.426 24.6068 106.354 24.5266C106.2 24.375 106.031 24.098 105.881 24.1216C105.677 24.1551 105.508 24.3986 105.323 24.5502C105.249 24.6123 105.147 24.6533 105.096 24.7291C104.908 25.0074 104.65 25.0758 104.332 25.0484C104.094 25.0316 103.856 25.0316 103.619 25.0484C103.37 25.0596 103.424 24.913 103.502 24.8074C103.784 24.4347 104.07 24.0533 104.384 23.7029C104.538 23.5314 104.673 23.3438 104.813 23.1649C105.001 22.9165 105.196 22.7922 105.506 22.8345C105.642 22.8434 105.778 22.8434 105.915 22.8345Z" fill="#1F1D20"/>
</svg>
