<svg fill="none" height="36" viewBox="0 0 216 36" width="216" xmlns="http://www.w3.org/2000/svg"><path d="m214.906 6.71901.132-.01491v4.9597l-.124-.0087c-.005-1.645-.008-3.29031-.008-4.93609z" fill="#656267"/><path d="m170.318 9.25596c0-.40254-.045-.81129.01-1.20638.082-.7185.255-1.42363.516-2.09842.327-.83732.773-1.62345 1.323-2.33448.452-.56117.963-1.07149 1.525-1.52195.498-.39079 1.033-.73083 1.598-1.01505.455-.226.925-.420682 1.407-.582689.791-.277057 1.615-.352844 2.438-.4621758.566-.0745444 1.142.0186361 1.715.0621203 1.698.1242405 3.213.7255655 4.608 1.6610945 1.395.93554 2.394 2.23634 3.089 3.74462.255.56565.44 1.16013.553 1.77043.154.81005.273 1.61513.197 2.43387-.072.76905-.171 1.53565-.435 2.28105-.263.7455-.55 1.4362-.994 2.0736-.087.1242-.062.2485.082.3727.497.3963.972.8125 1.46 1.2151.029.0155.053.0379.071.0653.018.0273.029.0587.032.0913s-.003.0653-.016.0952c-.013.03-.034.0561-.06.0762-.728.7976-1.461 1.5928-2.184 2.3953-.124.1243-.185.1578-.344.0448-.35-.2485-.621-.5753-.952-.8461-.248-.2025-.496-.4025-.718-.6212-.015-.0192-.034-.0351-.056-.0466-.022-.0114-.045-.0182-.07-.02s-.049.0016-.072.0099c-.023.0082-.045.0212-.063.0381-.711.4393-1.476.787-2.274 1.0349-.468.1344-.943.2377-1.424.3093-.772.1243-1.537.1007-2.306.0858-.651-.0125-1.281-.174-1.915-.328-.933-.241-1.821-.6311-2.63-1.1555-.767-.4723-1.452-1.067-2.027-1.7605-.437-.5261-.817-1.0966-1.135-1.7021-.314-.6177-.559-1.2686-.729-1.9406-.182-.7248-.256-1.4725-.22-2.21894zm11.199 4.45904c-.307-.2908-.596-.5653-.909-.82-.459-.3727-.905-.7641-1.346-1.1592-.025-.0211-.191-.0571-.043-.2187.756-.8187 1.467-1.67845 2.236-2.48477.164-.17145.262-.12424.4 0 .616.55825 1.234 1.11527 1.854 1.67107.089.0795.124.2609.297.1938.146-.0584.069-.2174.099-.3293.016-.0596.06-.1143.071-.1627.094-.3965.13-.80448.108-1.21136-.014-.39279-.067-.7832-.159-1.16538-.181-.70926-.513-1.37117-.973-1.94064-.648-.79107-1.553-1.32862-2.558-1.51822-.977-.21439-1.998-.0725-2.88.40006-1.421.75414-2.151 1.99779-2.397 3.53216-.08.54951-.063 1.10889.051 1.65238.138.7417.438 1.4438.879 2.0562.822 1.1505 1.953 1.7145 3.343 1.8102.657.0329 1.313-.0712 1.927-.3056z" fill="#1d5ea5"/><path d="m46.0296 9.50231c.0882-.11058.051-.2373.051-.35533 0-2.81033 0-5.62024 0-8.429736 0-.257178.0397-.346632.3255-.344147 1.4287.017394 2.8575.011182 4.285 0 .1914 0 .2609.033545.2609.248482-.0058 5.715071-.0058 11.427221 0 17.136521 0 .2137-.0708.2485-.2633.2485-1.2524-.0075-2.5047-.0261-3.7571.0087-.3826.0112-.528-.2423-.6858-.4523-.4162-.5553-.8498-1.0958-1.2747-1.6437-.6709-.8696-1.3319-1.7393-2.009-2.5991-.9678-1.2287-1.9568-2.4425-2.9147-3.67999-.2845-.37272-.5702-.73302-.9044-1.16537-.0087.1876-.0174.29445-.0174.40254 0 2.93332 0 5.86662.0062 8.80122 0 .2758-.0696.333-.3367.3305-1.4077-.0149-2.8153-.01-4.2242 0-.2075 0-.2994-.0149-.2994-.2734.0099-5.7018.0099-11.4036 0-17.105425 0-.197542.0435-.25842.2485-.255936 1.3766.00994 2.7531.014909 4.1297 0 .4038 0 .4895.337935.666.547902.5802.690779 1.1107 1.423799 1.6648 2.136939.8274 1.0635 1.6524 2.12825 2.4848 3.18429.8163 1.02996 1.5928 2.09222 2.4463 3.0936.0485.05094.0273.14039.118.16524z" fill="#020203"/><path d="m138.746 9.19429c0-2.8302 0-5.66041 0-8.489369 0-.255936.062-.326753.323-.32551 3.136.012424 6.272-.016152 9.406.028575 1.142.016151 2.274.265875 3.263.882114.88.54914 1.529 1.30328 1.826 2.33448.214.74544.188 1.50207.076 2.23633-.168 1.08462-.805 1.91579-1.757 2.48482-.171.10312-.333.2199-.497.32923-.054.03603-.174 0-.166.09194.009.03959.029.07587.058.10482.028.02895.064.04943.103.05918.464.16214.907.37947 1.319.64729.745.48081 1.34 1.08591 1.615 1.97671.22.6923.293 1.4234.212 2.1456-.182 1.5294-.937 2.701-2.328 3.4241-.8.4069-1.664.6721-2.554.7839-.58.0688-1.164.0986-1.747.0895-2.939.0074-5.878 0-8.821.0087-.249 0-.33-.0596-.33-.3218-.001-2.8339-.001-5.6641-.001-8.49061zm7.168 1.72941v-.0223c-.704 0-1.407.0111-2.113 0-.264 0-.329.0844-.324.3367.014.8361.015 1.6722 0 2.5071 0 .2572.088.3119.321.3094 1.21-.0075 2.42 0 3.63 0 .478.0201.955-.0718 1.392-.2684.642-.3131.971-1.2548.663-1.8959-.298-.6212-.822-.9057-1.462-.9479-.702-.0584-1.403-.0224-2.106-.0224zm-.373-6.56983c-.599 0-1.199 0-1.799 0-.201 0-.264.06212-.261.26463.012.84567.012 1.69216 0 2.53949 0 .23357.071.30563.301.29445 1.231-.05964 2.468.10312 3.697-.11058.309-.04312.601-.16365.851-.35036.447-.3516.64-.79265.518-1.38777-.072-.35036-.186-.65847-.473-.83862-.388-.26387-.844-.40855-1.313-.41621-.133.00195-1.521-.00009-1.521.00497z" fill="#ffd133"/><path d="m84.4382 17.9494c-.1242.0882-.2596.0571-.3889.0571-1.6039 0-3.2091-.0248-4.8118.0174-.4398.0125-.6423-.1814-.8386-.4845-.4684-.7181-.9293-1.4412-1.4064-2.1531-.5405-.8063-1.1033-1.5977-1.6151-2.4277-.0454-.0916-.1167-.1679-.205-.2193-.0884-.0515-.1899-.0759-.292-.0701-.4759.0223-.9529.0223-1.4275 0-.2485-.0112-.3156.0757-.3144.313.0087 1.5493 0 3.0986.0112 4.6479 0 .292-.0621.3876-.3727.3839-1.4379-.0149-2.8762-.0149-4.3149 0-.2398 0-.2833-.0646-.2833-.2895.0075-4.1828.0075-8.36553 0-12.5483 0-1.51823 0-3.03645 0-4.554671 0-.14412-.0124-.248482.1988-.248482 3.0936.009939 6.1885-.008697 9.2821.03106.6062.007455 1.22.155301 1.8238.313087.8801.229259 1.7043.635046 2.4227 1.192716.6324.48826 1.0883 1.1368 1.4449 1.86361.5926 1.21259.5976 2.50469.4485 3.77195-.1739 1.46977-.9256 2.67243-2.1655 3.54463-.3651.2791-.7591.5182-1.1753.7131-.1876.0795-.1118.2336-.0447.3292.6734.9728 1.3666 1.9357 2.0375 2.9073.5131.7454 1.0101 1.4909 1.5158 2.2363.154.2199.3118.4435.4708.6734zm-9.1789-13.22792v-.0087c-.6311 0-1.261 0-1.8922 0-.1664 0-.2311.03354-.2298.21742.0083 1.2275.0083 2.45541 0 3.68374 0 .18263.0621.21618.2286.21494 1.1368-.00746 2.2748.01118 3.4116-.01491.4758-.01148.9371-.16652 1.3232-.44478.6448-.45597.979-1.41635.7541-2.19285-.0969-.33421-.2385-.68457-.5106-.89205-.4249-.32179-.9094-.56281-1.4722-.56033-.533-.00248-1.071-.00248-1.6127-.00248z" fill="#050506"/><path d="m133.228 7.70312h3.757c.223 0 .298.04224.297.28327-.01 2.47981-.01 4.95931 0 7.43831 0 .2485-.125.3528-.303.4969-.718.5466-1.495 1.0109-2.316 1.3841-.633.2936-1.29.533-1.963.7156-1.332.3603-2.685.4088-4.047.3404-.646-.0501-1.286-.1612-1.912-.3317-.792-.1954-1.554-.4998-2.262-.9045-1.289-.7136-2.373-1.7463-3.149-2.9991-.456-.7537-.81-1.5652-1.052-2.4128-.077-.3053-.137-.6147-.179-.9268-.096-.6392-.128-1.28641-.095-1.93197.033-1.09963.27-2.1835.699-3.19672.552-1.33562 1.417-2.51864 2.523-3.44892.745-.62814 1.589-1.12704 2.499-1.475981.901-.353587 1.851-.570908 2.816-.6448093.376-.0485162.754-.0692794 1.132-.0621204.911.0633628 1.82.1143017 2.717.3329657 1.272.323331 2.47.890875 3.525 1.671035.209.15033.409.31433.621.46218.125.08448.125.13791.024.25594-.646.7678-1.281 1.54679-1.921 2.31957-.24.28948-.487.57275-.728.86223-.106.12424-.197.13915-.332.02237-.689-.6003-1.495-1.05088-2.368-1.32317-.286-.10968-.591-.16529-.898-.164-.231.01615-.467-.0646-.689-.07206-.357-.01276-.714.02616-1.06.11555-.666.17072-1.286.486-1.816.92341s-.957.98621-1.25 1.60737c-.396.78135-.568 1.65669-.497 2.52954.124 1.37409.576 2.60909 1.699 3.50109.603.4909 1.317.8266 2.08.9778.526.0919 1.062.1198 1.595.0832.739-.0353 1.458-.2462 2.099-.615.059-.0368.108-.0899.139-.153.031-.063.043-.1336.036-.2035-.005-.5061-.005-1.0122 0-1.5182 0-.2386-.092-.3467-.348-.3442-.953.0112-1.905 0-2.858.0087-.215 0-.28-.0559-.278-.2746.01-1.0229.01-2.0458 0-3.06872 0-.22239.07-.27209.281-.27084 1.256.01118 2.519.01118 3.782.01118z" fill="#ef9020"/><path d="m18.7301 9.18418c0-2.83145 0-5.66289-.0074-8.4931 0-.262148.067-.316814.3205-.315571 4.5248.008283 9.0493.008283 13.5733 0 .241 0 .3044.057151.3019.300663-.0137 1.197678-.0174 2.396608 0 3.595528 0 .28203-.082.328-.3429.328-2.8886-.00994-5.776 0-8.6646-.01491-.2857 0-.3354.082-.3279.34042.0186.6709.0173 1.34428 0 2.01518 0 .22364.0633.26588.2745.26588 2.6302-.0087 5.2591 0 7.8893-.01118.2485 0 .3032.06212.3007.3019-.0141 1.09498-.0141 2.18995 0 3.28491 0 .2299-.051.2895-.2858.2883-2.609-.01-5.2181 0-7.8271-.0137-.3032 0-.3566.0969-.3504.3653.0161.682.0236 1.3666 0 2.045-.0112.2932.0932.3255.3454.3242 2.9296-.0074 5.8592 0 8.7888-.0112.2596 0 .3292.0634.3267.3218-.0136 1.2188-.0112 2.4376 0 3.6577 0 .2037-.0546.2485-.2559.2485-4.5969-.005-9.1938-.005-13.7907 0-.2647 0-.2696-.1056-.2696-.3057.0008-2.8368.0012-5.6761.0012-8.51792z" fill="#020203"/><path d="m85.0748 9.17794c0-2.8302 0-5.6604-.0074-8.490607 0-.26836.0758-.311845.3242-.311845 4.5241.007455 9.0473.007455 13.5696 0 .2423 0 .3044.059636.3019.300663-.0136 1.198919-.0161 2.396599 0 3.595529 0 .28078-.0807.32799-.3416.32799-2.8886-.00994-5.776 0-8.6646-.01491-.2808 0-.3367.07455-.3292.33918.0199.6709.0161 1.3418 0 2.01394 0 .21867.0546.26836.2708.26836 2.619-.00869 5.238 0 7.8558-.01242.2733 0 .3379.06709.3342.33669-.0191 1.07675-.0191 2.15102 0 3.22279 0 .2684-.082.3168-.328.3156-2.5979-.0087-5.1958 0-7.7936-.0137-.292 0-.3429.0944-.338.3491.0149.702.0187 1.4052 0 2.1121-.0074.2485.0733.2796.2932.2796 2.9396-.0075 5.8791 0 8.8211-.0112.2684 0 .3504.0559.3466.333-.0149 1.2076-.0111 2.4164 0 3.6253 0 .2087-.041.2746-.2658.2746-4.5961-.0075-9.193-.0075-13.7907 0-.2299 0-.2634-.0771-.2634-.2808.0033-2.8551.0049-5.708.0049-8.55896z" fill="#020203"/><path d="m10.1338 18.352c-.42365 0-.85477.0484-1.26973-.0125-.50198-.0703-.99789-.1787-1.48343-.3242-.46545-.1483-.92179-.3238-1.36665-.5256-.60122-.2767-1.16756-.6237-1.68719-1.0337-1.14923-.8821-1.95058-2.0375-2.57179-3.3172-.22893-.5168-.41065-1.0532-.54293-1.6027-.309357-1.1244-.264631-2.26366-.20624-3.39673.0395-.5447.14548-1.08251.31557-1.60147.1968-.65093.4634-1.27868.79514-1.87231.54611-.99278 1.27939-1.87035 2.15931-2.5842.72633-.57024 1.52305-1.0446 2.37051-1.411378.47336-.21121.99393-.31433 1.50953-.431116.98479-.2231523 1.9985-.2902316 3.0041-.1987851 1.4722.0905151 2.8997.5410241 4.1571 1.3119791.7812.48842 1.4774 1.10112 2.0612 1.81392.0273.0323.0596.04845.0832.07454.4001.43982.3951.45597-.0658.81626-.8436.65848-1.6748 1.33187-2.5296 1.97543-.189.12959-.3699.27066-.5416.42242-.1802.17394-.287.10685-.4237-.04597-.4709-.52678-.9591-1.02995-1.5953-1.36665-.4447-.25723-.9423-.40937-1.4548-.44478-.5069-.01863-1.02749-.08075-1.51576.03106-.82739.17896-1.5725.6262-2.11954 1.27223-.40312.50433-.71127 1.07769-.90945 1.69216-.25654.76427-.32473 1.5792-.19878 2.37548.17145 1.24241.68829 2.33701 1.72819 3.10601.47088.3609 1.01908.6075 1.60146.7206.36655.0829.74318.1127 1.11818.0882.8299-.087 1.6151-.3069 2.2935-.8399.4196-.3247.808-.6878 1.1604-1.0846.1665-.1888.2746-.1975.4758-.0509.774.5616 1.5642 1.102 2.3444 1.6561.3119.2212.6051.4721.9256.6809.1529.1006.1603.159.0584.2994-.8075 1.1045-1.7493 2.05-2.9681 2.7209-.6436.3419-1.321.6158-2.0214.8175-.2982.0906-.6361.1242-.9442.1876-.5839.1292-1.1666.0447-1.7456.082z" fill="#050506"/><path d="m214.906 6.71894v4.93606l-5.899.0087c-.412 0-.412 0-.412.4125v5.6405c0 .2187-.035.2994-.281.297-1.47-.0137-2.94-.0112-4.41 0-.237 0-.308-.0584-.306-.3057.011-1.9207 0-3.8427.012-5.7647 0-.2361-.061-.2833-.288-.2821-1.926.0087-3.852 0-5.776.0112-.23 0-.29-.0497-.287-.2845.012-1.46604.012-2.93291 0-4.4006 0-.2373.067-.28327.292-.28203 1.926.00994 3.851 0 5.776.01118.24 0 .284-.0646.283-.28948-.01-1.92076 0-3.84277-.012-5.763528 0-.239785.067-.285754.29-.284512 1.48.009111 2.961.009111 4.441 0 .223 0 .267.064606.266.275815-.009 1.899645 0 3.800525-.013 5.701405 0 .28327.071.36403.355.36154 1.874-.01118 3.748 0 5.621 0 .121-.00869.234-.00248.348.00125z" fill="#020203"/><path d="m59.586.381627h7.4544c.2249 0 .2932.042242.2907.282026-.0149 1.259797-.0149 2.520017 0 3.780647 0 .23109-.0584.287-.2895.28451-1.5418-.01118-3.0849 0-4.6267-.01367-.2857 0-.328.08325-.3267.34042.0074 4.19437 0 8.38874.0124 12.58184 0 .292-.0646.3864-.3727.3827-1.4387-.0149-2.8775-.0124-4.3162 0-.2484 0-.3019-.0683-.3019-.3069.0075-4.2142 0-8.42848.0137-12.64273 0-.29818-.0932-.35408-.364-.35284-1.553.01118-3.1061 0-4.6578.01118-.2373 0-.3131-.05839-.3106-.30439.0132-1.22833.0132-2.45748 0-3.687465 0-.272087.0534-.357813.3441-.356571 2.4824.006212 4.9672.001243 7.4508.001243z" fill="#050506"/><path d="m162.264.381478c2.464 0 4.927 0 7.39-.007455.262 0 .324.068333.32.324269-.013 1.228738-.011 2.458728 0 3.687468 0 .24848-.062.33296-.328.33172-1.541-.01367-3.083 0-4.626-.01242-.249 0-.303.0646-.302.30563.007 4.21424 0 8.42971.012 12.64401 0 .2882-.078.3528-.355.3491-1.408-.0133-2.816-.0133-4.224 0-.295 0-.399-.0497-.398-.3827.014-4.1943.006-8.38871.016-12.58184 0-.2783-.072-.33793-.34-.33545-1.532.01367-3.064 0-4.597.01243-.249 0-.317-.06212-.314-.30564.01-1.24986.01-2.50013 0-3.750823 0-.2373.067-.284511.293-.284511 2.485.008697 4.968.006212 7.453.006212z" fill="#2ea439"/><path d="m106.332 9.17304c0-2.83021 0-5.66041 0-8.490616 0-.236058.048-.30936.298-.306875 1.429.012424 2.857.012424 4.285 0 .249 0 .301.077029.301.30936 0 4.194371 0 8.387491-.01 12.581891 0 .4.103.482.471.4808 2.577-.01 5.153 0 7.731-.01.268 0 .373.0448.364.3442-.019 1.2188-.012 2.4388 0 3.6576 0 .1926-.037.2634-.248.2634-4.316-.0074-8.632-.0074-12.948 0-.238 0-.234-.1068-.234-.277-.006-2.8501-.009-5.701-.01-8.55276z" fill="#e22124"/><path d="m190.679 9.18649c0-2.8302 0-5.66165 0-8.491856 0-.259663.066-.323026.323-.320541 1.429.014081 2.857.014081 4.285 0 .248 0 .358.043484.358.334208-.01 5.652129-.01 11.303399 0 16.953899 0 .2485-.062.3404-.327.3379-1.449-.0116-2.898-.0116-4.349 0-.236 0-.289-.0646-.288-.2932-.001-2.8385-.002-5.6786-.002-8.52041z" fill="#80328a"/><path d="m191.187 32.4867v-.3516c0-2.0139 0-4.0278-.007-6.0418 0-.2485.073-.3093.307-.2994.424.0174.85.0174 1.273 0 .225-.0099.292.046.29.2845-.013 1.4039 0 2.8091 0 4.2142v5.2679c0 .2335-.057.3006-.288.287-.341-.0199-.684-.015-1.024 0-.086.0076-.173-.0092-.25-.0485-.077-.0394-.141-.0997-.185-.1739-.473-.6424-.977-1.2611-1.464-1.8935-.776-1.01-1.544-2.0288-2.35-3.0165-.405-.497-.766-1.0263-1.162-1.5282-.047-.0584-.092-.2087-.201-.1665-.109.0423-.047.1653-.047.2485v5.7635c0 .1963-.01.3926 0 .5877.01.1553-.033.2249-.2.2224-.497-.0062-.994-.01-1.491 0-.218 0-.161-.1367-.161-.2485 0-1.2714 0-2.542 0-3.8117 0-1.8897.008-3.7807-.008-5.6704 0-.2869.083-.3404.341-.3255.373.0224.746.0149 1.119 0 .081-.0076.163.0078.236.0445s.134.0932.176.163c.49.6626.99 1.3186 1.5 1.968.925 1.1877 1.863 2.368 2.789 3.5545.248.3218.489.6535.733.9815z" fill="#0b0a0d"/><path d="m50.6495 32.0393c.3044.4336.5963.8573.8957 1.2772.5492.7703 1.1012 1.5393 1.6562 2.3071.041.0584.1242.1131.0683.1839-.0248.0336-.1106.0323-.1677.0336-.5802 0-1.1604 0-1.7394 0-.1677 0-.236-.0969-.3156-.2088-.5798-.81-1.1595-1.6196-1.7393-2.4289-.1788-.2395-.3447-.4883-.497-.7454-.0658-.1143-.1466-.0969-.2274-.0969-.61 0-1.2212 0-1.8325-.0075-.1975 0-.1802.1007-.1802.2299 0 .9939 0 1.9878.0063 2.9755 0 .205-.0323.2895-.2634.2796-.4548-.0187-.9107-.0112-1.3667 0-.1727 0-.2261-.0522-.2261-.2286.005-3.193.005-6.3856 0-9.5777 0-.1976.0634-.2485.2485-.2485 1.6772 0 3.3545-.0646 5.0292.0298 1.189.0671 2.2165.6287 2.7396 1.7704.2923.6313.3683 1.3413.2161 2.0202-.1553.7218-.4621 1.3045-1.0187 1.7692-.3685.3227-.8097.5512-1.2859.6659zm-4.0776-2.9669c0 .4858.0099.9716 0 1.4561-.0062.1951.0497.2386.2398.2361.7964-.0112 1.594 0 2.3904 0 .3034-.0112.6024-.076.8833-.1913.2523-.0854.4794-.2323.6605-.4276.1812-.1952.3107-.4326.3769-.6906.1491-.497-.0571-1.2051-.3901-1.5133-.3926-.335-.8927-.5176-1.4089-.5143-.8473-.0298-1.6971 0-2.5457-.0124-.164 0-.2087.0459-.205.2074.005.4759-.0012.9617-.0012 1.4499z" fill="#0e0d10"/><path d="m172.59 35.8411c-.717 0-1.377.0111-2.035 0-.259-.0062-.345-.2746-.46-.4411-.45-.656-.907-1.3058-1.38-1.9456-.216-.292-.408-.6013-.621-.8958-.034-.0602-.084-.1097-.145-.143-.061-.0334-.129-.0492-.198-.0458-.569 0-1.14.0087-1.709 0-.182 0-.219.0571-.218.2261.007.9939 0 1.9878.008 2.9756 0 .2087-.042.2919-.269.2832-.455-.0174-.912-.0136-1.367 0-.18 0-.218-.0584-.218-.2286.005-3.2029.005-6.4058 0-9.6088 0-.1553.031-.2149.201-.2137 1.687.0075 3.378-.0621 5.06.0311 1.243.0696 2.251.692 2.787 1.8748.191.4251.276.8902.248 1.3555-.074 1.0983-.485 2.0363-1.49 2.6177-.217.134-.451.2373-.696.3069-.205.0497-.184.1391-.101.2485.621.769 1.147 1.6151 1.739 2.3978.294.3616.551.7567.864 1.2052zm-6.759-6.7761c0 .4857.009.9715 0 1.4561 0 .1863.04.2485.236.2485.798-.0125 1.594-.0075 2.392 0 .293-.0032.583-.0618.855-.1727.54-.215.943-.5629 1.06-1.2139.041-.2105.04-.4271-.002-.6373-.043-.2103-.127-.41-.247-.5877-.36-.5678-.974-.6821-1.564-.7206-.835-.0559-1.676-.0087-2.515-.0199-.191 0-.214.0709-.211.2324-.004.4646-.004.9392-.004 1.4151z" fill="#0b0a0d"/><path d="m130.818 30.8241c0-1.5803 0-3.1606 0-4.741 0-.2422.076-.2907.296-.2895 1.334.0087 2.671-.0261 4.006.0149 1.077.0336 2.042.4088 2.93 1.0499.779.5707 1.363 1.3677 1.671 2.2823.249.6595.339 1.3679.265 2.0686-.148 1.2225-.574 2.332-1.498 3.1868-.612.5616-1.345.9756-2.142 1.2101-.639.1788-1.301.2588-1.963.2373-1.087 0-2.173-.0087-3.26 0-.249 0-.306-.0708-.303-.3119.005-1.5666-.002-3.137-.002-4.7075zm1.848-.0459v3.1582c0 .2137.059.2907.279.2758.776-.0497 1.553.0584 2.332-.0857.54-.0934 1.052-.3056 1.499-.6212.707-.497 1.077-1.225 1.216-2.0326.143-.8324.052-1.6872-.386-2.4302-.636-1.0784-1.665-1.5517-2.88-1.63-.598-.0385-1.2 0-1.799-.0124-.23-.0075-.265.072-.262.277.006 1.0374.001 2.0686.001 3.1011z" fill="#0e0d10"/><path d="m2.35069 30.8231c0-1.5803 0-3.1594 0-4.7385 0-.2262.04473-.2945.28203-.292 1.33434.0124 2.66993-.0186 4.00303.0137 1.08214.0273 2.05246.4037 2.93954 1.0349.82871.5901 1.33811 1.3977 1.68971 2.3121.1027.2508.1595.518.1677.7889 0 .3168.1242.6212.0969.9554-.0857 1.1505-.3889 2.2053-1.1604 3.1061-.57485.6641-1.31007 1.1701-2.13571 1.4697-.58793.2328-1.21391.3545-1.84622.3591-1.26228 0-2.52333 0-3.78561.0074-.19754 0-.25718-.0484-.25594-.2484.0087-1.5891.00497-3.1794.00497-4.7684zm1.85616-.036c0 1.0212.0087 2.0425 0 3.065 0 .2659.04472.3876.35036.364.75414-.0596 1.51201.0534 2.26988-.0894.53832-.0956 1.04926-.3076 1.4971-.6212.69947-.4908 1.06971-1.2039 1.20762-2.0003.1466-.8473.05466-1.7121-.4013-2.4712-.66345-1.1069-1.71452-1.5666-2.96439-1.6151-.56778-.0248-1.13804 0-1.70582-.0099-.205 0-.25469.0546-.24848.2484.00124 1.0424-.00497 2.0873-.00497 3.1297z" fill="#0b0a0d"/><path d="m91.2787 30.818c0-1.5803 0-3.1607-.0062-4.741 0-.2348.0584-.287.2882-.2845 1.2834.0124 2.5681-.0199 3.8515.0124 1.6387.041 2.9942.7132 4.0067 2.0003.4278.5564.7191 1.2053.8511 1.8947.098.5198.127 1.0504.086 1.5778-.045.8697-.356 1.6412-.8377 2.373-.5528.8399-1.3356 1.3741-2.2127 1.7754-.3468.1504-.7126.2524-1.0871.3032-1.5816.2422-3.1694.0397-4.7522.1167-.2324.0112-.1851-.1242-.1851-.2559-.0017-1.5903-.0025-3.181-.0025-4.7721zm1.7592-.041v3.1607c0 .2137.0572.2907.2783.2758.7977-.0546 1.5965.0659 2.3979-.0857.3562-.0491.7025-.1539 1.0262-.3106 1.1492-.6398 1.6561-1.6847 1.7543-2.9644.0161-.2124-.1242-.3814-.1006-.5839.036-.4001-.1404-.7591-.3131-1.0822-.6212-1.1492-1.6375-1.6971-2.916-1.7704-.6299-.036-1.2635 0-1.8934-.0112-.2013 0-.2348.0597-.2336.2423.005 1.0436 0 2.0872 0 3.1296z" fill="#050506"/><path d="m70.1927 30.8307c0-1.5791 0-3.1595-.0062-4.7398 0-.2286.0534-.2982.287-.2969 2.3283.0074 4.6566.0074 6.9848 0 .2224 0 .3082.0521.292.2919-.0236.34-.0236.6813 0 1.0213.0174.2485-.0671.3093-.3069.3081-1.6859-.0087-3.3731 0-5.0591-.0112-.2857 0-.3578.0721-.3478.3504.0223.6286.0174 1.2598 0 1.8897-.0062.2236.0646.2659.2745.2646 1.4698-.0099 2.9396 0 4.4094-.0112.2484 0 .3255.0684.3155.3094-.0161.3727-.0136.7454 0 1.1182.0075.2211-.0571.2981-.2969.2957-1.4698-.0125-2.9383 0-4.4081-.01-.2174 0-.3031.0298-.2944.2771.0211.6609.0161 1.3219 0 1.9878-.0062.2485.0397.3529.3342.3491 1.6971-.0174 3.3942 0 5.0939-.0149.2484 0 .3118.0671.2994.3057-.0212.3801-.0125.764 0 1.1455 0 .1466-.0373.1925-.1889.1913-2.3796 0-4.7596 0-7.1401 0-.2174 0-.2485-.0895-.2485-.2746.0087-1.5865.0062-3.1669.0062-4.7472z" fill="#0e0d10"/><g fill="#0b0a0d"><path d="m204.705 30.812c0-1.5803 0-3.1606 0-4.741 0-.2062.036-.2783.263-.277 2.297.0099 4.594.0099 6.892 0 .266 0 .333.0782.315.3304-.025.34-.025.6813 0 1.0213.023.2721-.124.2684-.313.2684-1.687 0-3.373 0-5.06-.0075-.249 0-.356.0336-.343.3243.028.6286.019 1.2598 0 1.8897 0 .2224.04.2932.281.2919 1.469-.0136 2.939-.0074 4.409-.0074.385 0 .394.0112.395.4025 0 .3206-.01.6411 0 .9604.011.2671-.107.3504-.363.3491-1.479-.0074-2.959 0-4.439-.0099-.231 0-.293.0534-.287.287.018.6808.014 1.3666 0 2.0437 0 .2137.057.2796.278.2783 1.708-.0099 3.415 0 5.122-.0136.297 0 .361.0894.345.359-.022.3504-.014.7032 0 1.0536 0 .1627-.021.2336-.212.2323-2.359-.0058-4.72-.0058-7.082 0-.235 0-.209-.1242-.209-.2659.006-1.5902.008-3.1801.008-4.7696z"/><path d="m12.8904 30.8121c0-1.5704 0-3.1408 0-4.7112 0-.2211.0286-.3131.2907-.3118 2.2985.0124 4.5961.0124 6.8929 0 .2485 0 .3106.0758.297.3093-.0213.331-.0213.663 0 .994.0186.2484-.046.328-.3131.3255-1.6872-.0137-3.3732 0-5.0604-.0137-.2807 0-.3603.0646-.3503.3479.0236.6398.0161 1.2809 0 1.9207 0 .1963.0547.2373.241.2361 1.4909-.0087 2.9818 0 4.4727-.0087.2733 0 .3901.087.3727.3727-.0174.3305-.0149.661 0 .9939.0112.261-.0919.3579-.3553.3566-1.4797-.0074-2.9594 0-4.4404-.0087-.2174 0-.3019.0311-.2944.2783.0211.661.0161 1.3219 0 1.9879 0 .2485.0397.3528.3342.3503 1.6971-.0174 3.3955 0 5.0938-.0161.2597 0 .3355.0633.3193.3218-.0187.3724-.0187.7456 0 1.1181 0 .1628-.0459.2063-.2074.205-2.3598-.0049-4.7204-.0049-7.0818 0-.2298 0-.2137-.1093-.2137-.2609.0017-1.5994.0025-3.195.0025-4.787z"/><path d="m116.871 30.8046c0-1.5803 0-3.1607 0-4.741 0-.2162.054-.2709.271-.2696 2.298.0074 4.595.0074 6.892 0 .232 0 .329.0497.31.3044-.025.3308-.025.663 0 .9939.019.2572-.057.3317-.318.328-1.19-.0137-2.38 0-3.571 0-.538 0-1.075 0-1.615 0-.161 0-.21.041-.207.205.01.6821.012 1.3666 0 2.045 0 .2062.057.2485.257.2485 1.48-.0087 2.959 0 4.439-.0087.286 0 .41.0857.393.3826-.018.3195-.018.6397 0 .9592.012.2758-.091.3727-.373.3727-1.469-.01-2.938 0-4.408-.0124-.27 0-.318.0782-.312.3255.019.6497.02 1.3008 0 1.9518-.009.2758.08.3367.349.3342 1.697-.0137 3.394 0 5.094-.0124.237 0 .322.0522.307.3019-.022.3802-.012.7641 0 1.1455 0 .1453-.032.195-.188.1938-2.369-.005-4.738-.005-7.109 0-.241 0-.201-.1329-.201-.2721z"/><path d="m141.346 30.8118c0-1.5804 0-3.1607 0-4.7411 0-.2099.041-.2758.264-.2758 2.32.0083 4.639.0083 6.958 0 .191 0 .273.0336.261.2485-.021.3608-.021.7226 0 1.0834.015.2348-.059.2895-.287.2882-1.697-.0099-3.396 0-5.094-.0136-.291 0-.354.0807-.344.354.021.6088.026 1.2188 0 1.8276-.013.2895.087.328.343.3255 1.459-.0124 2.918 0 4.378-.0099.277 0 .384.0969.373.3727-.017.3293-.015.661 0 .9939.011.2659-.101.3529-.361.3516-1.479-.0074-2.959 0-4.439-.0087-.228 0-.296.046-.289.2833.018.6709.015 1.3431 0 2.014 0 .236.056.313.308.3118 1.708-.0124 3.415 0 5.124-.0137.268 0 .329.0771.314.3268-.023.3603-.014.7231 0 1.0834 0 .1627-.021.2348-.213.2335-2.359-.0058-4.72-.0058-7.081 0-.235 0-.208-.1242-.208-.2658-.004-1.592-.006-3.1818-.007-4.7696z"/></g><path d="m177.999 33.473h-1.864c-.529 0-.54.0162-.723.497-.221.5889-.472 1.1653-.735 1.7393-.05.1081-.091.1317-.192.1317-.508 0-1.015-.0087-1.521 0-.173 0-.213-.0869-.152-.2025.357-.6734.639-1.3815.94-2.0773.35-.8026.704-1.6052 1.04-2.414.373-.897.797-1.7754 1.191-2.6649.227-.5132.438-1.035.662-1.5506.16-.3727.336-.7342.489-1.1082.015-.0478.047-.0885.09-.1146.043-.026.093-.0356.143-.027.446 0 .892.0198 1.335-.0075.219-.0124.235.1777.274.2597.32.7032.582 1.4325.916 2.1282.373.7827.694 1.5878 1.06 2.373.239.5094.45 1.0349.67 1.5555.303.7181.658 1.4164.953 2.1382.201.497.412.9778.638 1.4586.069.1441.058.2671-.18.2485-.402-.0199-.806 0-1.21 0-.488 0-.543-.0323-.691-.497-.182-.5765-.497-1.1008-.669-1.6785-.022-.0664-.066-.1232-.125-.1603-.059-.037-.129-.052-.198-.0422-.712.0273-1.427.0149-2.141.0149zm-.071-5.4778c-.084.4659-.3.8262-.468 1.1977-.354.784-.634 1.599-1.041 2.3606-.056.1031-.053.2236.138.2137.19-.01.413 0 .621 0h2.236c.077 0 .27.0646.2-.1168-.163-.4237-.373-.8299-.55-1.2424-.231-.533-.438-1.0772-.685-1.6015-.124-.2708-.173-.5827-.451-.8113z" fill="#111012"/><path d="m43.8061 35.8401c-.6001 0-1.2151 0-1.8313 0-.2075 0-.1714-.2087-.1975-.2746-.2038-.5367-.4734-1.0449-.6635-1.5853-.1789-.5057-.1677-.5106-.7206-.5106-1.2933 0-2.5879.0124-3.8812-.0112-.2734 0-.4125.0932-.4846.3106-.2112.6435-.5367 1.2424-.7703 1.8723-.0335.0932-.0882.1975-.2249.1975h-1.748c.3864-.9032.7454-1.7791 1.1318-2.6463.5181-1.1716 1.0697-2.3295 1.5717-3.5073.405-.9492.8191-1.8947 1.2424-2.8364.1354-.3044.2845-.6113.3938-.9281.0152-.0721.0564-.1361.1157-.1799.0594-.0437.1327-.0642.2061-.0574h1.2424c.0678-.0035.1348.0157.1904.0547.0556.0389.0966.0953.1165.1602.3615.8188.7355 1.6313 1.092 2.4525.3566.8213.6784 1.6313 1.0325 2.4401.3876.8871.8026 1.7618 1.1902 2.6476.3181.7281.6212 1.4636.9144 2.2003.0224.0696.1392.0671.082.2013zm-5.2392-7.8508c-.0685.0697-.1286.1473-.1789.2311-.4672 1.1182-.9119 2.2425-1.4077 3.3458-.1018.2274-.0347.1963.1131.1975h2.8501c.1963 0 .2162-.0944.159-.2248-.2684-.6088-.5566-1.2101-.8225-1.8214-.2422-.5541-.4646-1.1219-.7131-1.7282z" fill="#111012"/><path d="m61.6733 25.6559c1.0424-.0857 2.1121.3926 3.1309 1.0462.1453.0931.3131.236.0671.482-.2659.2646-.4361.6212-.6585.9318-.0721.1006-.118.2038-.3094.0634-.4218-.3236-.8987-.5681-1.4076-.7219-.7914-.2211-1.599-.3727-2.3407.1702-.143.106-.2561.2472-.3284.4098s-.1014.3411-.0844.5182c.017.1772.0795.3469.1814.4928.1019.1458.2399.2629.4003.3397.497.2572 1.0437.3839 1.5866.5281.7802.2062 1.5779.3926 2.2699.8435.7218.4722 1.1492 1.1083 1.1592 2.0028.0062.6001-.041 1.1703-.3603 1.7046-.2954.4887-.7273.8804-1.2425 1.1268-.9094.4622-1.8959.4585-2.8575.3454-1.169-.1286-2.2675-.6234-3.1383-1.4138-.1677-.1516-.1479-.256-.0286-.3964.2634-.3081.533-.6112.7889-.9268.0882-.1068.1553-.1242.2622-.0373.5367.4212 1.0983.8287 1.7505 1.0176.6523.1888 1.3145.2969 1.9978.0795.3641-.1156.6709-.2323.8772-.5926.081-.1287.1335-.2732.1538-.4238.0204-.1507.0081-.304-.036-.4495-.044-.1455-.1189-.2798-.2194-.3939-.1005-.114-.2243-.2052-.3631-.2672-.5317-.2559-1.1107-.3827-1.6847-.5268-.8983-.2249-1.8176-.4348-2.5358-1.0921-.3938-.3699-.6512-.862-.7305-1.3964-.0754-.4446-.0534-.9004.0646-1.3356.0835-.3373.2359-.6537.4476-.9294.2116-.2756.478-.5044.7824-.6721.7877-.4497 1.1815-.533 2.4053-.5268z" fill="#0b0a0d"/><path d="m25.3304 30.812c0-1.5804 0-3.1607 0-4.741 0-.164-.0161-.2796.2286-.2771 1.4598.0162 2.9209-.0385 4.377.0286.9803.0447 1.8636.4299 2.5047 1.2324.3107.3911.5237.8507.6212 1.3406.0903.3764.1172.7652.0795 1.1505-.1441 1.1567-.7032 2.0512-1.7729 2.5805-.7028.3537-1.4835.5246-2.2699.4969-.569-.0199-1.138.0075-1.707-.0087-.2485-.0074-.3081.0758-.3044.3156.0149.8883 0 1.7766.0112 2.6637 0 .205-.0535.2609-.2547.2485-.4138-.0149-.8287-.0174-1.2424 0-.2137.0087-.2746-.0447-.2721-.2671.0062-1.5853.0012-3.1756.0012-4.7634zm1.7593-1.6226v1.5791c0 .1118-.0261.2485.1503.2373.8386-.0509 1.6797.0982 2.5184-.0981.7069-.1665 1.2125-.4871 1.4436-1.2213.0891-.257.113-.532.0696-.8004s-.1526-.5219-.318-.7377c-.3728-.5368-.9716-.6684-1.5555-.7194-.6871-.0609-1.3853-.0124-2.0786-.0186-.1677 0-.2336.0484-.2298.2298.0074.5131 0 1.03 0 1.5468z" fill="#050506"/><path d="m200.131 35.9716h-1.126c-1.548-.0795-2.733-.8411-3.654-2.0226-.41-.5487-.695-1.1805-.836-1.8512-.168-.7508-.19-1.5268-.066-2.286.188-1.2126.807-2.2301 1.763-3.0253.469-.3931 1.008-.6945 1.588-.8883.373-.1242.746-.2485 1.138-.2348.192 0 .362-.1069.538-.0957 1.173.0733 2.328.2286 3.299.9765.204.1578.42.2982.611.4759.144.1342.135.2373.034.3566-.309.359-.63.7056-.935 1.0672-.124.1466-.171.0348-.256-.0336-.363-.3214-.769-.5907-1.206-.8001-.69-.2969-1.375-.4286-2.132-.2398-.521.1305-1.007.3744-1.423.7144-.435.365-.76.8444-.938 1.3841-.182.4479-.266.9294-.248 1.4126.089 1.2933.585 2.378 1.739 3.0489.599.3602 1.304.5024 1.996.4025.837-.1385 1.612-.5321 2.217-1.1269.168-.1565.257-.1739.418.0112.264.3093.549.5999.853.8697.115.0994.111.1627.034.2385-.507.53-1.11.9592-1.777 1.2648-.51.2416-1.066.3716-1.631.3814z" fill="#0e0d10"/><path d="m155.293 30.812c0-1.5704.007-3.1408 0-4.71 0-.2547.078-.3044.312-.3031 2.319.0074 4.638.0074 6.957 0 .216 0 .317.0385.297.2857-.026.3192-.026.64 0 .9591.026.2945-.057.3815-.364.379-1.666-.0162-3.332 0-4.999-.0137-.27 0-.366.0485-.356.3417.025.7019.019 1.4051 0 2.1121 0 .2248.043.2919.282.2907 1.491-.0137 2.982 0 4.473-.0124.257 0 .373.0459.343.3354-.027.3196-.027.6408 0 .9604.019.2485-.056.3317-.318.328-1.314-.0137-2.629-.0075-3.943 0-.268 0-.622-.0857-.777.0484-.155.1342-.047.5032-.048.7691 0 1.0126-.009 2.0239 0 3.0364 0 .1914-.048.2485-.239.2411-.455-.0137-.911-.0125-1.367 0-.206 0-.248-.0709-.248-.2672-.001-1.6051-.005-3.1954-.005-4.7807z" fill="#0e0d10"/><path d="m83.4588 31.6607c0 1.2797-.0087 2.5606 0 3.8403 0 .2634-.0497.3641-.3317.3479-.4233-.0248-.8477-.0248-1.271 0-.2485.0149-.2795-.0783-.2783-.2944.0067-2.5677.0067-5.1382 0-7.7117 0-.4-.0124-.4112-.4162-.4112-.8274 0-1.6549-.0075-2.4848 0-.2286 0-.333-.0385-.3143-.2982.0236-.3504.0236-.7019 0-1.0523-.0137-.2274.0472-.2945.2832-.292 1.3555.0125 2.7097.0062 4.0652.0062h3.603c.1926 0 .2696.0361.2584.2485-.0192.3816-.0192.7639 0 1.1455.0112.215-.0696.2485-.2609.2485-.8486-.0099-1.6971.0075-2.5444-.0112-.2709 0-.3268.0882-.3243.3342.0161 1.2983.0161 2.5991.0161 3.8999z" fill="#0b0a0d"/><path d="m108.691 30.8207c0-1.5803 0-3.1619 0-4.7423 0-.231.051-.2969.286-.2857.434.0211.87.0186 1.303 0 .225-.0099.271.0696.271.2808-.007 2.5829 0 5.1647-.011 7.7476 0 .3044.063.4013.391.3963 1.48-.0211 2.961-.0087 4.441-.0087.402 0 .402 0 .402.415 0 .2994-.017.6013.007.8983.019.2485-.046.328-.314.3255-1.646-.0137-3.292-.0062-4.937-.0062-.528 0-1.057-.01-1.584 0-.204 0-.255-.0522-.255-.2485.004-1.5903 0-3.1818 0-4.7721z" fill="#0b0a0d"/><path d="m106.816 30.8517c0 1.5592-.007 3.1197.008 4.6789 0 .2696-.083.328-.331.3168-.423-.0186-.85-.0149-1.273 0-.199.0062-.257-.0484-.256-.2485.01-1.5902 0-3.1805 0-4.772 0-1.5916 0-3.1607 0-4.7411 0-.236.062-.2957.289-.2857.413.0186.829.0199 1.243 0 .248-.0112.332.0497.329.318-.017 1.5729-.009 3.1533-.009 4.7336z" fill="#111012"/><path d="m54.5107 30.8118c0-1.5791 0-3.1581 0-4.7372 0-.2324.0547-.297.287-.2858.4237.0211.8486.0124 1.2723 0 .1639 0 .231.0273.2298.2137-.0058 3.2104-.0058 6.4203 0 9.6299 0 .1627-.0447.2099-.2075.2062-.4448-.0099-.8895-.0174-1.3331 0-.2199.01-.2485-.0745-.2485-.2634 0-1.5803 0-3.1693 0-4.7634z" fill="#020203"/><path d="m127.324 32.3577c-.621 0-1.242-.0062-1.863 0-.192 0-.255-.0646-.249-.2485.009-.4534.008-.9069 0-1.3666 0-.1715.06-.2336.234-.2323 1.271.0049 2.542.0049 3.813 0 .211 0 .296.0845.292.2932-.008.4125-.01.8249 0 1.2424 0 .2236-.08.3131-.307.3106-.637-.0037-1.278.0012-1.92.0012z" fill="#1f1d20"/><path d="m151.838 30.5227c.621 0 1.242.0062 1.864 0 .233 0 .339.0733.331.318-.012.4025-.011.8051 0 1.2064 0 .2174-.067.3193-.299.318-1.261-.0066-2.521-.0066-3.782 0-.179 0-.263-.0447-.258-.241.01-.4531.01-.9065 0-1.3604 0-.1963.079-.2485.258-.241.626.0049 1.256 0 1.886 0z" fill="#1f1d20"/><path d="m103.469 26.9605c0 .2683.014.5367 0 .805-.052.9145-.432 1.6152-1.328 1.9631-.19.062-.384.1101-.581.1441-.347.0758-.394.0248-.446-.3367-.008-.0587-.027-.1154-.056-.1665-.107-.1839-.101-.2957.17-.3516.594-.1242.937-.4597 1.006-1.0101.023-.169-.028-.2273-.212-.2273-.531 0-.531-.01-.531-.5542 0-.4025.01-.8063 0-1.2076-.006-.1801.055-.2249.226-.2211.506.0099 1.014.0099 1.52 0 .18 0 .258.031.248.2335-.02.3082 0 .6212 0 .9294z" fill="#111012"/><path d="m105.915 22.8345c.103.0093.206.0093.309 0 .36-.0671.583.1118.784.3814.4.5359.814 1.0618 1.242 1.5778.023.0237.039.0521.049.083.01.031.013.0637.008.0959-.009.1168-.106.0709-.167.0721-.342 0-.682 0-1.024 0-.236 0-.329-.2274-.513-.3143-.093-.0548-.177-.1236-.249-.2038-.154-.1516-.323-.4286-.473-.405-.204.0335-.373.277-.558.4286-.074.0621-.176.1031-.227.1789-.188.2783-.446.3467-.764.3193-.238-.0168-.476-.0168-.713 0-.249.0112-.195-.1354-.117-.241.282-.3727.568-.7541.882-1.1045.154-.1715.289-.3591.429-.538.188-.2484.383-.3727.693-.3304.136.0089.272.0089.409 0z" fill="#1f1d20"/></svg>